<svg width="328" height="137" viewBox="0 0 328 137" fill="none" xmlns="http://www.w3.org/2000/svg">
<g filter="url(#filter0_d_27_11)">
<path d="M6.07333 129.624C29.7883 123.474 66.1953 114.088 103.675 116.879C133.252 119.08 129.418 128.578 119.07 130.498" stroke="#FFE382" stroke-width="4" stroke-linecap="round"/>
</g>
<path d="M44.072 14.872L37.052 40H31.112L26.396 22.108L21.464 40L15.56 40.036L8.792 14.872H14.192L18.62 34.384L23.732 14.872H29.348L34.172 34.276L38.636 14.872H44.072ZM65.9029 29.596C65.9029 30.316 65.8549 30.964 65.7589 31.54H51.1789C51.2989 32.98 51.8029 34.108 52.6909 34.924C53.5789 35.74 54.6709 36.148 55.9669 36.148C57.8389 36.148 59.1709 35.344 59.9629 33.736H65.3989C64.8229 35.656 63.7189 37.24 62.0869 38.488C60.4549 39.712 58.4509 40.324 56.0749 40.324C54.1549 40.324 52.4269 39.904 50.8909 39.064C49.3789 38.2 48.1909 36.988 47.3269 35.428C46.4869 33.868 46.0669 32.068 46.0669 30.028C46.0669 27.964 46.4869 26.152 47.3269 24.592C48.1669 23.032 49.3429 21.832 50.8549 20.992C52.3669 20.152 54.1069 19.732 56.0749 19.732C57.9709 19.732 59.6629 20.14 61.1509 20.956C62.6629 21.772 63.8269 22.936 64.6429 24.448C65.4829 25.936 65.9029 27.652 65.9029 29.596ZM60.6829 28.156C60.6589 26.86 60.1909 25.828 59.2789 25.06C58.3669 24.268 57.2509 23.872 55.9309 23.872C54.6829 23.872 53.6269 24.256 52.7629 25.024C51.9229 25.768 51.4069 26.812 51.2149 28.156H60.6829ZM74.6217 13.36V40H69.5817V13.36H74.6217ZM78.3052 30.028C78.3052 27.964 78.7252 26.164 79.5652 24.628C80.4052 23.068 81.5692 21.868 83.0572 21.028C84.5452 20.164 86.2492 19.732 88.1692 19.732C90.6412 19.732 92.6812 20.356 94.2892 21.604C95.9212 22.828 97.0132 24.556 97.5652 26.788H92.1292C91.8412 25.924 91.3492 25.252 90.6532 24.772C89.9812 24.268 89.1412 24.016 88.1332 24.016C86.6932 24.016 85.5532 24.544 84.7132 25.6C83.8732 26.632 83.4532 28.108 83.4532 30.028C83.4532 31.924 83.8732 33.4 84.7132 34.456C85.5532 35.488 86.6932 36.004 88.1332 36.004C90.1732 36.004 91.5052 35.092 92.1292 33.268H97.5652C97.0132 35.428 95.9212 37.144 94.2892 38.416C92.6572 39.688 90.6172 40.324 88.1692 40.324C86.2492 40.324 84.5452 39.904 83.0572 39.064C81.5692 38.2 80.4052 37 79.5652 35.464C78.7252 33.904 78.3052 32.092 78.3052 30.028ZM110.113 40.324C108.193 40.324 106.465 39.904 104.929 39.064C103.393 38.2 102.181 36.988 101.293 35.428C100.429 33.868 99.9974 32.068 99.9974 30.028C99.9974 27.988 100.441 26.188 101.329 24.628C102.241 23.068 103.477 21.868 105.037 21.028C106.597 20.164 108.337 19.732 110.257 19.732C112.177 19.732 113.917 20.164 115.477 21.028C117.037 21.868 118.261 23.068 119.149 24.628C120.061 26.188 120.517 27.988 120.517 30.028C120.517 32.068 120.049 33.868 119.113 35.428C118.201 36.988 116.953 38.2 115.369 39.064C113.809 39.904 112.057 40.324 110.113 40.324ZM110.113 35.932C111.025 35.932 111.877 35.716 112.669 35.284C113.485 34.828 114.133 34.156 114.613 33.268C115.093 32.38 115.333 31.3 115.333 30.028C115.333 28.132 114.829 26.68 113.821 25.672C112.837 24.64 111.625 24.124 110.185 24.124C108.745 24.124 107.533 24.64 106.549 25.672C105.589 26.68 105.109 28.132 105.109 30.028C105.109 31.924 105.577 33.388 106.513 34.42C107.473 35.428 108.673 35.932 110.113 35.932ZM148.982 19.768C151.43 19.768 153.398 20.524 154.886 22.036C156.398 23.524 157.154 25.612 157.154 28.3V40H152.114V28.984C152.114 27.424 151.718 26.236 150.926 25.42C150.134 24.58 149.054 24.16 147.686 24.16C146.318 24.16 145.226 24.58 144.41 25.42C143.618 26.236 143.222 27.424 143.222 28.984V40H138.182V28.984C138.182 27.424 137.786 26.236 136.994 25.42C136.202 24.58 135.122 24.16 133.754 24.16C132.362 24.16 131.258 24.58 130.442 25.42C129.65 26.236 129.254 27.424 129.254 28.984V40H124.214V20.056H129.254V22.468C129.902 21.628 130.73 20.968 131.738 20.488C132.77 20.008 133.898 19.768 135.122 19.768C136.682 19.768 138.074 20.104 139.298 20.776C140.522 21.424 141.47 22.36 142.142 23.584C142.79 22.432 143.726 21.508 144.95 20.812C146.198 20.116 147.542 19.768 148.982 19.768ZM180.477 29.596C180.477 30.316 180.429 30.964 180.333 31.54H165.753C165.873 32.98 166.377 34.108 167.265 34.924C168.153 35.74 169.245 36.148 170.541 36.148C172.413 36.148 173.745 35.344 174.537 33.736H179.973C179.397 35.656 178.293 37.24 176.661 38.488C175.029 39.712 173.025 40.324 170.649 40.324C168.729 40.324 167.001 39.904 165.465 39.064C163.953 38.2 162.765 36.988 161.901 35.428C161.061 33.868 160.641 32.068 160.641 30.028C160.641 27.964 161.061 26.152 161.901 24.592C162.741 23.032 163.917 21.832 165.429 20.992C166.941 20.152 168.681 19.732 170.649 19.732C172.545 19.732 174.237 20.14 175.725 20.956C177.237 21.772 178.401 22.936 179.217 24.448C180.057 25.936 180.477 27.652 180.477 29.596ZM175.257 28.156C175.233 26.86 174.765 25.828 173.853 25.06C172.941 24.268 171.825 23.872 170.505 23.872C169.257 23.872 168.201 24.256 167.337 25.024C166.497 25.768 165.981 26.812 165.789 28.156H175.257ZM198.602 24.196V33.844C198.602 34.516 198.758 35.008 199.07 35.32C199.406 35.608 199.958 35.752 200.726 35.752H203.066V40H199.898C195.65 40 193.526 37.936 193.526 33.808V24.196H191.15V20.056H193.526V15.124H198.602V20.056H203.066V24.196H198.602ZM215.547 40.324C213.627 40.324 211.899 39.904 210.363 39.064C208.827 38.2 207.615 36.988 206.727 35.428C205.863 33.868 205.431 32.068 205.431 30.028C205.431 27.988 205.875 26.188 206.763 24.628C207.675 23.068 208.911 21.868 210.471 21.028C212.031 20.164 213.771 19.732 215.691 19.732C217.611 19.732 219.351 20.164 220.911 21.028C222.471 21.868 223.695 23.068 224.583 24.628C225.495 26.188 225.951 27.988 225.951 30.028C225.951 32.068 225.483 33.868 224.547 35.428C223.635 36.988 222.387 38.2 220.803 39.064C219.243 39.904 217.491 40.324 215.547 40.324ZM215.547 35.932C216.459 35.932 217.311 35.716 218.103 35.284C218.919 34.828 219.567 34.156 220.047 33.268C220.527 32.38 220.767 31.3 220.767 30.028C220.767 28.132 220.263 26.68 219.255 25.672C218.271 24.64 217.059 24.124 215.619 24.124C214.179 24.124 212.967 24.64 211.983 25.672C211.023 26.68 210.543 28.132 210.543 30.028C210.543 31.924 211.011 33.388 211.947 34.42C212.907 35.428 214.107 35.932 215.547 35.932ZM257.306 20.056L244.958 49.432H239.594L243.914 39.496L235.922 20.056H241.574L246.722 33.988L251.942 20.056H257.306ZM268.879 40.324C266.959 40.324 265.231 39.904 263.695 39.064C262.159 38.2 260.947 36.988 260.059 35.428C259.195 33.868 258.763 32.068 258.763 30.028C258.763 27.988 259.207 26.188 260.095 24.628C261.007 23.068 262.243 21.868 263.803 21.028C265.363 20.164 267.103 19.732 269.023 19.732C270.943 19.732 272.683 20.164 274.243 21.028C275.803 21.868 277.027 23.068 277.915 24.628C278.827 26.188 279.283 27.988 279.283 30.028C279.283 32.068 278.815 33.868 277.879 35.428C276.967 36.988 275.719 38.2 274.135 39.064C272.575 39.904 270.823 40.324 268.879 40.324ZM268.879 35.932C269.791 35.932 270.643 35.716 271.435 35.284C272.251 34.828 272.899 34.156 273.379 33.268C273.859 32.38 274.099 31.3 274.099 30.028C274.099 28.132 273.595 26.68 272.587 25.672C271.603 24.64 270.391 24.124 268.951 24.124C267.511 24.124 266.299 24.64 265.315 25.672C264.355 26.68 263.875 28.132 263.875 30.028C263.875 31.924 264.343 33.388 265.279 34.42C266.239 35.428 267.439 35.932 268.879 35.932ZM301.808 20.056V40H296.732V37.48C296.084 38.344 295.232 39.028 294.176 39.532C293.144 40.012 292.016 40.252 290.792 40.252C289.232 40.252 287.852 39.928 286.652 39.28C285.452 38.608 284.504 37.636 283.808 36.364C283.136 35.068 282.8 33.532 282.8 31.756V20.056H287.84V31.036C287.84 32.62 288.236 33.844 289.028 34.708C289.82 35.548 290.9 35.968 292.268 35.968C293.66 35.968 294.752 35.548 295.544 34.708C296.336 33.844 296.732 32.62 296.732 31.036V20.056H301.808ZM311.821 23.152C312.469 22.096 313.309 21.268 314.341 20.668C315.397 20.068 316.597 19.768 317.941 19.768V25.06H316.609C315.025 25.06 313.825 25.432 313.009 26.176C312.217 26.92 311.821 28.216 311.821 30.064V40H306.781V20.056H311.821V23.152ZM15.254 119.394C14.014 119.394 12.836 119.063 11.72 118.402C10.6453 117.741 10.108 116.893 10.108 115.86C10.108 115.323 10.1907 114.744 10.356 114.124C10.5627 113.504 10.7487 112.925 10.914 112.388C12.1953 108.461 13.394 104.803 14.51 101.414C15.626 97.9833 16.742 94.6973 17.858 91.556C19.0153 88.3733 20.214 85.1907 21.454 82.008C22.7353 78.8253 24.1613 75.498 25.732 72.026C24.1613 72.3567 22.818 72.7907 21.702 73.328C20.586 73.824 19.6767 74.2787 18.974 74.692C18.2713 75.064 17.7547 75.25 17.424 75.25C17.2173 75.25 16.9073 75.1053 16.494 74.816C16.122 74.5267 15.7913 74.196 15.502 73.824C15.2127 73.452 15.068 73.1213 15.068 72.832C16.2253 72.336 17.5687 71.8193 19.098 71.282C20.6687 70.7447 22.3633 70.29 24.182 69.918C26.0007 69.546 27.8193 69.36 29.638 69.36C31.5807 69.36 33.5647 69.6287 35.59 70.166C37.6153 70.662 39.4753 71.4267 41.17 72.46C42.906 73.452 44.2907 74.7127 45.324 76.242C46.3987 77.73 46.936 79.4867 46.936 81.512C46.936 83.7027 46.44 85.5833 45.448 87.154C44.456 88.7247 43.1333 90.0473 41.48 91.122C39.868 92.1967 38.1113 93.0647 36.21 93.726C34.3087 94.3873 32.4073 94.8833 30.506 95.214C28.646 95.5447 26.972 95.772 25.484 95.896C23.996 96.02 22.88 96.082 22.136 96.082H21.764C20.6067 100.174 19.47 104.266 18.354 108.358C17.238 112.409 16.2047 116.087 15.254 119.394ZM22.322 94.16C24.6367 93.9947 26.9513 93.602 29.266 92.982C31.5807 92.362 33.668 91.5147 35.528 90.44C37.4293 89.324 38.938 87.9393 40.054 86.286C41.2113 84.6327 41.79 82.7107 41.79 80.52C41.79 78.4533 41.232 76.7793 40.116 75.498C39.0413 74.2167 37.636 73.2453 35.9 72.584C34.2053 71.9227 32.4073 71.5713 30.506 71.53C29.018 74.4233 27.592 77.854 26.228 81.822C24.864 85.7487 23.562 89.8613 22.322 94.16ZM41.9876 116.914C40.6236 116.914 39.4456 116.459 38.4536 115.55C37.4203 114.641 36.9036 113.277 36.9036 111.458C36.9036 110.011 37.2343 108.441 37.8956 106.746C38.557 105.051 39.4663 103.377 40.6236 101.724C41.781 100.071 43.1036 98.5827 44.5916 97.26C46.0796 95.896 47.671 94.8007 49.3656 93.974C51.0603 93.1473 52.755 92.734 54.4496 92.734C56.227 92.734 57.7356 93.1887 58.9756 94.098C60.2156 95.0073 60.8356 96.206 60.8356 97.694C60.8356 98.81 60.443 99.616 59.6576 100.112C58.8723 100.608 57.9423 100.753 56.8676 100.546C56.9503 100.174 57.0123 99.802 57.0536 99.43C57.1363 99.058 57.1776 98.6653 57.1776 98.252C57.1776 97.4253 57.0123 96.6813 56.6816 96.02C56.351 95.3587 55.6483 95.028 54.5736 95.028C53.4163 95.028 52.2383 95.4207 51.0396 96.206C49.841 96.9913 48.6836 98.0247 47.5676 99.306C46.493 100.546 45.5216 101.931 44.6536 103.46C43.7856 104.948 43.1036 106.415 42.6076 107.862C42.1116 109.309 41.8636 110.611 41.8636 111.768C41.8636 113.091 42.339 113.752 43.2896 113.752C44.2403 113.752 45.2943 113.297 46.4516 112.388C47.609 111.437 48.7663 110.259 49.9236 108.854C51.1223 107.449 52.259 106.023 53.3336 104.576C54.4083 103.088 55.3383 101.827 56.1236 100.794C56.2476 100.587 56.413 100.484 56.6196 100.484C56.785 100.525 57.095 100.629 57.5496 100.794C58.0456 100.918 58.5003 101.125 58.9136 101.414C59.327 101.703 59.5336 102.075 59.5336 102.53C59.5336 102.943 59.3476 103.481 58.9756 104.142C58.645 104.762 58.2316 105.465 57.7356 106.25C57.281 106.994 56.8676 107.759 56.4956 108.544C56.165 109.288 55.9996 110.011 55.9996 110.714C55.9996 111.251 56.1443 111.768 56.4336 112.264C56.723 112.719 57.1983 112.946 57.8596 112.946C58.8516 112.946 60.2363 112.223 62.0136 110.776C63.8323 109.288 65.6716 106.787 67.5316 103.274L68.7096 104.452C67.7176 106.684 66.519 108.668 65.1136 110.404C63.7496 112.099 62.303 113.421 60.7736 114.372C59.2443 115.364 57.6943 115.86 56.1236 115.86C54.429 115.86 53.1683 115.323 52.3416 114.248C51.515 113.173 51.0603 112.016 50.9776 110.776C50.9776 110.693 50.9776 110.631 50.9776 110.59C50.9776 110.549 50.9776 110.507 50.9776 110.466C49.3243 112.45 47.795 114.021 46.3896 115.178C45.0256 116.335 43.5583 116.914 41.9876 116.914ZM77.5345 115.612C76.0051 115.612 74.7651 115.199 73.8145 114.372C72.8638 113.587 72.3885 112.512 72.3885 111.148C72.3885 109.991 72.6778 108.751 73.2565 107.428C73.8351 106.105 74.4138 104.803 74.9925 103.522C75.6125 102.241 75.9225 101.104 75.9225 100.112C75.9225 99.1613 75.6125 98.376 74.9925 97.756C74.3725 97.0947 73.6491 96.5573 72.8225 96.144C71.9131 98.4173 70.8798 100.629 69.7225 102.778C68.6065 104.886 67.6971 106.539 66.9945 107.738L66.0645 105.94C66.6431 104.865 67.4078 103.336 68.3585 101.352C69.3091 99.368 70.2185 97.1567 71.0865 94.718C70.6731 94.3047 70.4665 93.7467 70.4665 93.044C70.4665 91.9693 70.7971 90.9567 71.4585 90.006C72.1198 89.0553 72.7605 88.58 73.3805 88.58C73.8765 88.58 74.2278 88.8693 74.4345 89.448C74.6825 89.9853 74.8065 90.3573 74.8065 90.564C74.8065 90.7707 74.7031 91.1427 74.4965 91.68C74.3311 92.2173 74.2071 92.61 74.1245 92.858C74.1658 93.3127 74.5171 93.7673 75.1785 94.222C75.8811 94.6353 76.6665 95.1313 77.5345 95.71C78.4025 96.2887 79.1671 97.012 79.8285 97.88C80.4898 98.748 80.8205 99.8433 80.8205 101.166C80.8205 102.365 80.5518 103.584 80.0145 104.824C79.4771 106.064 78.9398 107.221 78.4025 108.296C77.8651 109.371 77.5965 110.301 77.5965 111.086C77.5965 111.665 77.7411 112.057 78.0305 112.264C78.3611 112.429 78.7331 112.512 79.1465 112.512C80.1385 112.512 81.1718 112.223 82.2465 111.644C83.3211 111.024 84.3751 110.239 85.4085 109.288C86.4418 108.337 87.3511 107.345 88.1365 106.312C88.9218 105.237 89.5211 104.266 89.9345 103.398L91.4225 104.514C90.6371 106.291 89.5005 108.048 88.0125 109.784C86.5245 111.479 84.8711 112.884 83.0525 114C81.2338 115.075 79.3945 115.612 77.5345 115.612ZM93.5479 115.86C91.7292 115.86 90.3652 115.323 89.4559 114.248C88.5466 113.173 88.0919 111.871 88.0919 110.342C88.0919 109.391 88.2572 108.193 88.5879 106.746C88.9186 105.299 89.3732 103.791 89.9519 102.22C90.5719 100.608 91.2746 99.0993 92.0599 97.694C92.8452 96.2887 93.6926 95.152 94.6019 94.284C95.5112 93.3747 96.4206 92.92 97.3299 92.92C97.8259 92.92 98.2599 93.0853 98.6319 93.416C99.0039 93.7053 99.1899 94.1393 99.1899 94.718C99.1899 95.2553 98.8592 96.0613 98.1979 97.136C97.5779 98.2107 96.8339 99.4507 95.9659 100.856C95.1392 102.261 94.3952 103.729 93.7339 105.258C93.1139 106.746 92.8039 108.172 92.8039 109.536C92.8039 110.859 93.0312 111.747 93.4859 112.202C93.9819 112.615 94.6846 112.822 95.5939 112.822C96.9992 112.822 98.5286 112.119 100.182 110.714C101.835 109.309 103.551 106.849 105.328 103.336L106.258 104.328C104.811 107.965 102.972 110.797 100.74 112.822C98.5079 114.847 96.1106 115.86 93.5479 115.86ZM100.864 87.898C100.079 87.898 99.3552 87.712 98.6939 87.34C98.0739 86.9267 97.7639 86.3067 97.7639 85.48C97.7639 84.488 98.3012 83.6407 99.3759 82.938C100.451 82.2353 101.567 81.884 102.724 81.884C103.468 81.884 104.088 82.0493 104.584 82.38C105.121 82.7107 105.39 83.31 105.39 84.178C105.39 85.046 104.915 85.8933 103.964 86.72C103.013 87.5053 101.98 87.898 100.864 87.898ZM110.979 117.162C108.912 117.162 107.238 116.728 105.957 115.86C104.717 115.033 103.828 113.979 103.291 112.698C102.753 111.375 102.485 110.032 102.485 108.668C102.485 107.469 102.65 106.539 102.981 105.878C103.311 105.217 103.725 104.741 104.221 104.452C104.717 104.121 105.171 103.873 105.585 103.708C106.039 103.543 106.37 103.357 106.577 103.15C107.61 102.075 108.664 100.835 109.739 99.43C110.855 97.9833 111.805 96.392 112.591 94.656V94.036C112.591 92.3827 112.859 91.2253 113.397 90.564C113.975 89.8613 114.637 89.51 115.381 89.51C115.877 89.51 116.228 89.634 116.435 89.882C116.683 90.13 116.827 90.4193 116.869 90.75C116.869 90.998 116.807 91.2873 116.683 91.618C116.6 91.9487 116.559 92.4033 116.559 92.982C116.559 94.222 116.848 95.648 117.427 97.26C118.047 98.8307 118.646 100.505 119.225 102.282C119.845 104.059 120.155 105.878 120.155 107.738C120.155 108.234 120.134 108.689 120.093 109.102C120.051 109.515 119.989 109.908 119.907 110.28C121.188 109.949 122.449 109.247 123.689 108.172C124.929 107.056 126.107 105.423 127.223 103.274L127.967 103.832C127.181 106.188 126.045 108.089 124.557 109.536C123.069 110.941 121.333 111.809 119.349 112.14C118.687 113.835 117.592 115.095 116.063 115.922C114.575 116.749 112.88 117.162 110.979 117.162ZM110.545 114.434C111.371 114.434 112.136 114.227 112.839 113.814C113.541 113.401 114.099 112.801 114.513 112.016C112.818 111.644 111.289 110.983 109.925 110.032C108.561 109.081 107.507 108.11 106.763 107.118C106.184 107.242 105.895 107.8 105.895 108.792C105.895 110.156 106.287 111.437 107.073 112.636C107.858 113.835 109.015 114.434 110.545 114.434ZM115.009 110.156C115.091 109.867 115.133 109.536 115.133 109.164C115.174 108.751 115.195 108.441 115.195 108.234C115.153 106.374 114.905 104.535 114.451 102.716C113.996 100.897 113.541 99.0373 113.087 97.136C112.343 98.4173 111.475 99.802 110.483 101.29C109.491 102.778 108.561 103.977 107.693 104.886C108.354 106.002 109.325 107.056 110.607 108.048C111.888 109.04 113.355 109.743 115.009 110.156ZM151.447 101.112C152.863 101.376 154.027 102.084 154.939 103.236C155.851 104.388 156.307 105.708 156.307 107.196C156.307 108.54 155.971 109.728 155.299 110.76C154.651 111.768 153.703 112.56 152.455 113.136C151.207 113.712 149.731 114 148.027 114H137.191V88.872H147.559C149.263 88.872 150.727 89.148 151.951 89.7C153.199 90.252 154.135 91.02 154.759 92.004C155.407 92.988 155.731 94.104 155.731 95.352C155.731 96.816 155.335 98.04 154.543 99.024C153.775 100.008 152.743 100.704 151.447 101.112ZM142.231 99.24H146.839C148.039 99.24 148.963 98.976 149.611 98.448C150.259 97.896 150.583 97.116 150.583 96.108C150.583 95.1 150.259 94.32 149.611 93.768C148.963 93.216 148.039 92.94 146.839 92.94H142.231V99.24ZM147.307 109.896C148.531 109.896 149.479 109.608 150.151 109.032C150.847 108.456 151.195 107.64 151.195 106.584C151.195 105.504 150.835 104.664 150.115 104.064C149.395 103.44 148.423 103.128 147.199 103.128H142.231V109.896H147.307ZM162.88 91.68C161.992 91.68 161.248 91.404 160.648 90.852C160.072 90.276 159.784 89.568 159.784 88.728C159.784 87.888 160.072 87.192 160.648 86.64C161.248 86.064 161.992 85.776 162.88 85.776C163.768 85.776 164.5 86.064 165.076 86.64C165.676 87.192 165.976 87.888 165.976 88.728C165.976 89.568 165.676 90.276 165.076 90.852C164.5 91.404 163.768 91.68 162.88 91.68ZM165.364 94.056V114H160.324V94.056H165.364ZM175.383 97.152C176.031 96.096 176.871 95.268 177.903 94.668C178.959 94.068 180.159 93.768 181.503 93.768V99.06H180.171C178.587 99.06 177.387 99.432 176.571 100.176C175.779 100.92 175.383 102.216 175.383 104.064V114H170.343V94.056H175.383V97.152ZM190.766 98.196V107.844C190.766 108.516 190.922 109.008 191.234 109.32C191.57 109.608 192.122 109.752 192.89 109.752H195.23V114H192.062C187.814 114 185.69 111.936 185.69 107.808V98.196H183.314V94.056H185.69V89.124H190.766V94.056H195.23V98.196H190.766ZM210.087 93.768C211.599 93.768 212.943 94.104 214.119 94.776C215.295 95.424 216.207 96.396 216.855 97.692C217.527 98.964 217.863 100.5 217.863 102.3V114H212.823V102.984C212.823 101.4 212.427 100.188 211.635 99.348C210.843 98.484 209.763 98.052 208.395 98.052C207.003 98.052 205.899 98.484 205.083 99.348C204.291 100.188 203.895 101.4 203.895 102.984V114H198.855V87.36H203.895V96.54C204.543 95.676 205.407 95.004 206.487 94.524C207.567 94.02 208.767 93.768 210.087 93.768ZM221.36 103.956C221.36 101.94 221.756 100.152 222.548 98.592C223.364 97.032 224.468 95.832 225.86 94.992C227.252 94.152 228.8 93.732 230.504 93.732C231.8 93.732 233.036 94.02 234.212 94.596C235.388 95.148 236.324 95.892 237.02 96.828V87.36H242.132V114H237.02V111.048C236.396 112.032 235.52 112.824 234.392 113.424C233.264 114.024 231.956 114.324 230.468 114.324C228.788 114.324 227.252 113.892 225.86 113.028C224.468 112.164 223.364 110.952 222.548 109.392C221.756 107.808 221.36 105.996 221.36 103.956ZM237.056 104.028C237.056 102.804 236.816 101.76 236.336 100.896C235.856 100.008 235.208 99.336 234.392 98.88C233.576 98.4 232.7 98.16 231.764 98.16C230.828 98.16 229.964 98.388 229.172 98.844C228.38 99.3 227.732 99.972 227.228 100.86C226.748 101.724 226.508 102.756 226.508 103.956C226.508 105.156 226.748 106.212 227.228 107.124C227.732 108.012 228.38 108.696 229.172 109.176C229.988 109.656 230.852 109.896 231.764 109.896C232.7 109.896 233.576 109.668 234.392 109.212C235.208 108.732 235.856 108.06 236.336 107.196C236.816 106.308 237.056 105.252 237.056 104.028ZM245.758 103.956C245.758 101.94 246.154 100.152 246.946 98.592C247.762 97.032 248.854 95.832 250.222 94.992C251.614 94.152 253.162 93.732 254.866 93.732C256.354 93.732 257.65 94.032 258.754 94.632C259.882 95.232 260.782 95.988 261.454 96.9V94.056H266.53V114H261.454V111.084C260.806 112.02 259.906 112.8 258.754 113.424C257.626 114.024 256.318 114.324 254.83 114.324C253.15 114.324 251.614 113.892 250.222 113.028C248.854 112.164 247.762 110.952 246.946 109.392C246.154 107.808 245.758 105.996 245.758 103.956ZM261.454 104.028C261.454 102.804 261.214 101.76 260.734 100.896C260.254 100.008 259.606 99.336 258.79 98.88C257.974 98.4 257.098 98.16 256.162 98.16C255.226 98.16 254.362 98.388 253.57 98.844C252.778 99.3 252.13 99.972 251.626 100.86C251.146 101.724 250.906 102.756 250.906 103.956C250.906 105.156 251.146 106.212 251.626 107.124C252.13 108.012 252.778 108.696 253.57 109.176C254.386 109.656 255.25 109.896 256.162 109.896C257.098 109.896 257.974 109.668 258.79 109.212C259.606 108.732 260.254 108.06 260.734 107.196C261.214 106.308 261.454 105.252 261.454 104.028ZM290.533 94.056L278.185 123.432H272.821L277.141 113.496L269.149 94.056H274.801L279.949 107.988L285.169 94.056H290.533Z" fill="#171717"/>
<defs>
<filter id="filter0_d_27_11" x="0.072876" y="110.373" width="132.597" height="26.1253" filterUnits="userSpaceOnUse" color-interpolation-filters="sRGB">
<feFlood flood-opacity="0" result="BackgroundImageFix"/>
<feColorMatrix in="SourceAlpha" type="matrix" values="0 0 0 0 0 0 0 0 0 0 0 0 0 0 0 0 0 0 127 0" result="hardAlpha"/>
<feOffset/>
<feGaussianBlur stdDeviation="2"/>
<feComposite in2="hardAlpha" operator="out"/>
<feColorMatrix type="matrix" values="0 0 0 0 1 0 0 0 0 0.891833 0 0 0 0 0.508333 0 0 0 0.6 0"/>
<feBlend mode="normal" in2="BackgroundImageFix" result="effect1_dropShadow_27_11"/>
<feBlend mode="normal" in="SourceGraphic" in2="effect1_dropShadow_27_11" result="shape"/>
</filter>
</defs>
</svg>
