<svg width="249" height="89" viewBox="0 0 249 89" fill="none" xmlns="http://www.w3.org/2000/svg">
<g filter="url(#filter0_d_35_31)">
<path d="M92.9662 82.547C115.752 77.0078 150.734 68.5546 186.751 71.0895C215.175 73.0898 211.495 81.6591 201.551 83.3871" stroke="#FFE382" stroke-width="3" stroke-linecap="round"/>
</g>
<path d="M18.088 31H14.896L5.292 16.468V31H2.1V11.512H5.292L14.896 26.016V11.512H18.088V31ZM28.9717 31.252C27.5157 31.252 26.1997 30.9253 25.0237 30.272C23.8477 29.6 22.9237 28.6667 22.2517 27.472C21.5797 26.2587 21.2437 24.8587 21.2437 23.272C21.2437 21.704 21.589 20.3133 22.2797 19.1C22.9704 17.8867 23.913 16.9533 25.1077 16.3C26.3024 15.6467 27.637 15.32 29.1117 15.32C30.5864 15.32 31.921 15.6467 33.1157 16.3C34.3104 16.9533 35.253 17.8867 35.9437 19.1C36.6344 20.3133 36.9797 21.704 36.9797 23.272C36.9797 24.84 36.625 26.2307 35.9157 27.444C35.2064 28.6573 34.2357 29.6 33.0037 30.272C31.7904 30.9253 30.4464 31.252 28.9717 31.252ZM28.9717 28.48C29.793 28.48 30.5584 28.284 31.2677 27.892C31.9957 27.5 32.5837 26.912 33.0317 26.128C33.4797 25.344 33.7037 24.392 33.7037 23.272C33.7037 22.152 33.489 21.2093 33.0597 20.444C32.6304 19.66 32.061 19.072 31.3517 18.68C30.6424 18.288 29.877 18.092 29.0557 18.092C28.2344 18.092 27.469 18.288 26.7597 18.68C26.069 19.072 25.5184 19.66 25.1077 20.444C24.697 21.2093 24.4917 22.152 24.4917 23.272C24.4917 24.9333 24.9117 26.2213 25.7517 27.136C26.6104 28.032 27.6837 28.48 28.9717 28.48ZM60.8552 15.572L56.0672 31H52.7072L49.5992 19.604L46.4912 31H43.1312L38.3152 15.572H41.5632L44.7832 27.976L48.0592 15.572H51.3912L54.5272 27.92L57.7192 15.572H60.8552ZM66.7406 27.164L63.3526 34.892H61.2806L63.2686 27.164H66.7406ZM79.9951 10.28V31H76.8031V10.28H79.9951ZM98.3259 22.908C98.3259 23.4867 98.2886 24.0093 98.2139 24.476H86.4259C86.5193 25.708 86.9766 26.6973 87.7979 27.444C88.6193 28.1907 89.6273 28.564 90.8219 28.564C92.5393 28.564 93.7526 27.8453 94.4619 26.408H97.9059C97.4393 27.8267 96.5899 28.9933 95.3579 29.908C94.1446 30.804 92.6326 31.252 90.8219 31.252C89.3473 31.252 88.0219 30.9253 86.8459 30.272C85.6886 29.6 84.7739 28.6667 84.1019 27.472C83.4486 26.2587 83.1219 24.8587 83.1219 23.272C83.1219 21.6853 83.4393 20.2947 84.0739 19.1C84.7273 17.8867 85.6326 16.9533 86.7899 16.3C87.9659 15.6467 89.3099 15.32 90.8219 15.32C92.2779 15.32 93.5753 15.6373 94.7139 16.272C95.8526 16.9067 96.7393 17.8027 97.3739 18.96C98.0086 20.0987 98.3259 21.4147 98.3259 22.908ZM94.9939 21.9C94.9753 20.724 94.5553 19.7813 93.7339 19.072C92.9126 18.3627 91.8953 18.008 90.6819 18.008C89.5806 18.008 88.6379 18.3627 87.8539 19.072C87.0699 19.7627 86.6033 20.7053 86.4539 21.9H94.9939ZM105.191 18.176V26.716C105.191 27.2947 105.322 27.7147 105.583 27.976C105.863 28.2187 106.33 28.34 106.983 28.34H108.943V31H106.423C104.986 31 103.885 30.664 103.119 29.992C102.354 29.32 101.971 28.228 101.971 26.716V18.176H100.151V15.572H101.971V11.736H105.191V15.572H108.943V18.176H105.191ZM112.389 11.54H115.861L112.921 18.204H110.681L112.389 11.54ZM124.266 31.252C123.053 31.252 121.961 31.0373 120.99 30.608C120.038 30.16 119.282 29.5627 118.722 28.816C118.162 28.0507 117.864 27.2013 117.826 26.268H121.13C121.186 26.9213 121.494 27.472 122.054 27.92C122.633 28.3493 123.352 28.564 124.21 28.564C125.106 28.564 125.797 28.396 126.282 28.06C126.786 27.7053 127.038 27.2573 127.038 26.716C127.038 26.1373 126.758 25.708 126.198 25.428C125.657 25.148 124.789 24.84 123.594 24.504C122.437 24.1867 121.494 23.8787 120.766 23.58C120.038 23.2813 119.404 22.824 118.862 22.208C118.34 21.592 118.078 20.78 118.078 19.772C118.078 18.9507 118.321 18.204 118.806 17.532C119.292 16.8413 119.982 16.3 120.878 15.908C121.793 15.516 122.838 15.32 124.014 15.32C125.769 15.32 127.178 15.768 128.242 16.664C129.325 17.5413 129.904 18.7453 129.978 20.276H126.786C126.73 19.5853 126.45 19.0347 125.946 18.624C125.442 18.2133 124.761 18.008 123.902 18.008C123.062 18.008 122.418 18.1667 121.97 18.484C121.522 18.8013 121.298 19.2213 121.298 19.744C121.298 20.1547 121.448 20.5 121.746 20.78C122.045 21.06 122.409 21.284 122.838 21.452C123.268 21.6013 123.902 21.7973 124.742 22.04C125.862 22.3387 126.777 22.6467 127.486 22.964C128.214 23.2627 128.84 23.7107 129.362 24.308C129.885 24.9053 130.156 25.6987 130.174 26.688C130.174 27.5653 129.932 28.3493 129.446 29.04C128.961 29.7307 128.27 30.272 127.374 30.664C126.497 31.056 125.461 31.252 124.266 31.252ZM139.833 23.272C139.833 21.6853 140.15 20.2947 140.785 19.1C141.438 17.8867 142.334 16.9533 143.473 16.3C144.612 15.6467 145.918 15.32 147.393 15.32C149.26 15.32 150.8 15.768 152.013 16.664C153.245 17.5413 154.076 18.8013 154.505 20.444H151.061C150.781 19.6787 150.333 19.0813 149.717 18.652C149.101 18.2227 148.326 18.008 147.393 18.008C146.086 18.008 145.041 18.4747 144.257 19.408C143.492 20.3227 143.109 21.6107 143.109 23.272C143.109 24.9333 143.492 26.2307 144.257 27.164C145.041 28.0973 146.086 28.564 147.393 28.564C149.241 28.564 150.464 27.752 151.061 26.128H154.505C154.057 27.696 153.217 28.9467 151.985 29.88C150.753 30.7947 149.222 31.252 147.393 31.252C145.918 31.252 144.612 30.9253 143.473 30.272C142.334 29.6 141.438 28.6667 140.785 27.472C140.15 26.2587 139.833 24.8587 139.833 23.272ZM165.666 15.32C166.842 15.32 167.887 15.572 168.802 16.076C169.735 16.58 170.463 17.3267 170.986 18.316C171.527 19.3053 171.798 20.5 171.798 21.9V31H168.634V22.376C168.634 20.9947 168.289 19.94 167.598 19.212C166.907 18.4653 165.965 18.092 164.77 18.092C163.575 18.092 162.623 18.4653 161.914 19.212C161.223 19.94 160.878 20.9947 160.878 22.376V31H157.686V10.28H160.878V17.364C161.419 16.7107 162.101 16.2067 162.922 15.852C163.762 15.4973 164.677 15.32 165.666 15.32ZM182.562 31.252C181.106 31.252 179.79 30.9253 178.614 30.272C177.438 29.6 176.514 28.6667 175.842 27.472C175.17 26.2587 174.834 24.8587 174.834 23.272C174.834 21.704 175.179 20.3133 175.87 19.1C176.56 17.8867 177.503 16.9533 178.698 16.3C179.892 15.6467 181.227 15.32 182.702 15.32C184.176 15.32 185.511 15.6467 186.706 16.3C187.9 16.9533 188.843 17.8867 189.534 19.1C190.224 20.3133 190.57 21.704 190.57 23.272C190.57 24.84 190.215 26.2307 189.506 27.444C188.796 28.6573 187.826 29.6 186.594 30.272C185.38 30.9253 184.036 31.252 182.562 31.252ZM182.562 28.48C183.383 28.48 184.148 28.284 184.858 27.892C185.586 27.5 186.174 26.912 186.622 26.128C187.07 25.344 187.294 24.392 187.294 23.272C187.294 22.152 187.079 21.2093 186.65 20.444C186.22 19.66 185.651 19.072 184.942 18.68C184.232 18.288 183.467 18.092 182.646 18.092C181.824 18.092 181.059 18.288 180.35 18.68C179.659 19.072 179.108 19.66 178.698 20.444C178.287 21.2093 178.082 22.152 178.082 23.272C178.082 24.9333 178.502 26.2213 179.342 27.136C180.2 28.032 181.274 28.48 182.562 28.48ZM200.417 31.252C198.961 31.252 197.645 30.9253 196.469 30.272C195.293 29.6 194.369 28.6667 193.697 27.472C193.025 26.2587 192.689 24.8587 192.689 23.272C192.689 21.704 193.034 20.3133 193.725 19.1C194.416 17.8867 195.358 16.9533 196.553 16.3C197.748 15.6467 199.082 15.32 200.557 15.32C202.032 15.32 203.366 15.6467 204.561 16.3C205.756 16.9533 206.698 17.8867 207.389 19.1C208.08 20.3133 208.425 21.704 208.425 23.272C208.425 24.84 208.07 26.2307 207.361 27.444C206.652 28.6573 205.681 29.6 204.449 30.272C203.236 30.9253 201.892 31.252 200.417 31.252ZM200.417 28.48C201.238 28.48 202.004 28.284 202.713 27.892C203.441 27.5 204.029 26.912 204.477 26.128C204.925 25.344 205.149 24.392 205.149 23.272C205.149 22.152 204.934 21.2093 204.505 20.444C204.076 19.66 203.506 19.072 202.797 18.68C202.088 18.288 201.322 18.092 200.501 18.092C199.68 18.092 198.914 18.288 198.205 18.68C197.514 19.072 196.964 19.66 196.553 20.444C196.142 21.2093 195.937 22.152 195.937 23.272C195.937 24.9333 196.357 26.2213 197.197 27.136C198.056 28.032 199.129 28.48 200.417 28.48ZM217.18 31.252C215.967 31.252 214.875 31.0373 213.904 30.608C212.952 30.16 212.196 29.5627 211.636 28.816C211.076 28.0507 210.778 27.2013 210.74 26.268H214.044C214.1 26.9213 214.408 27.472 214.968 27.92C215.547 28.3493 216.266 28.564 217.124 28.564C218.02 28.564 218.711 28.396 219.196 28.06C219.7 27.7053 219.952 27.2573 219.952 26.716C219.952 26.1373 219.672 25.708 219.112 25.428C218.571 25.148 217.703 24.84 216.508 24.504C215.351 24.1867 214.408 23.8787 213.68 23.58C212.952 23.2813 212.318 22.824 211.776 22.208C211.254 21.592 210.992 20.78 210.992 19.772C210.992 18.9507 211.235 18.204 211.72 17.532C212.206 16.8413 212.896 16.3 213.792 15.908C214.707 15.516 215.752 15.32 216.928 15.32C218.683 15.32 220.092 15.768 221.156 16.664C222.239 17.5413 222.818 18.7453 222.892 20.276H219.7C219.644 19.5853 219.364 19.0347 218.86 18.624C218.356 18.2133 217.675 18.008 216.816 18.008C215.976 18.008 215.332 18.1667 214.884 18.484C214.436 18.8013 214.212 19.2213 214.212 19.744C214.212 20.1547 214.362 20.5 214.66 20.78C214.959 21.06 215.323 21.284 215.752 21.452C216.182 21.6013 216.816 21.7973 217.656 22.04C218.776 22.3387 219.691 22.6467 220.4 22.964C221.128 23.2627 221.754 23.7107 222.276 24.308C222.799 24.9053 223.07 25.6987 223.088 26.688C223.088 27.5653 222.846 28.3493 222.36 29.04C221.875 29.7307 221.184 30.272 220.288 30.664C219.411 31.056 218.375 31.252 217.18 31.252ZM240.678 22.908C240.678 23.4867 240.64 24.0093 240.566 24.476H228.778C228.871 25.708 229.328 26.6973 230.15 27.444C230.971 28.1907 231.979 28.564 233.174 28.564C234.891 28.564 236.104 27.8453 236.814 26.408H240.257C239.791 27.8267 238.942 28.9933 237.71 29.908C236.496 30.804 234.984 31.252 233.174 31.252C231.699 31.252 230.374 30.9253 229.198 30.272C228.04 29.6 227.126 28.6667 226.454 27.472C225.8 26.2587 225.474 24.8587 225.474 23.272C225.474 21.6853 225.791 20.2947 226.426 19.1C227.079 17.8867 227.984 16.9533 229.142 16.3C230.318 15.6467 231.662 15.32 233.174 15.32C234.63 15.32 235.927 15.6373 237.066 16.272C238.204 16.9067 239.091 17.8027 239.726 18.96C240.36 20.0987 240.678 21.4147 240.678 22.908ZM237.346 21.9C237.327 20.724 236.907 19.7813 236.086 19.072C235.264 18.3627 234.247 18.008 233.034 18.008C231.932 18.008 230.99 18.3627 230.206 19.072C229.422 19.7627 228.955 20.7053 228.806 21.9H237.346ZM7.7 73.252C6.48667 73.252 5.39467 73.0373 4.424 72.608C3.472 72.16 2.716 71.5627 2.156 70.816C1.596 70.0507 1.29733 69.2013 1.26 68.268H4.564C4.62 68.9213 4.928 69.472 5.488 69.92C6.06667 70.3493 6.78533 70.564 7.644 70.564C8.54 70.564 9.23067 70.396 9.716 70.06C10.22 69.7053 10.472 69.2573 10.472 68.716C10.472 68.1373 10.192 67.708 9.632 67.428C9.09067 67.148 8.22267 66.84 7.028 66.504C5.87067 66.1867 4.928 65.8787 4.2 65.58C3.472 65.2813 2.83733 64.824 2.296 64.208C1.77333 63.592 1.512 62.78 1.512 61.772C1.512 60.9507 1.75467 60.204 2.24 59.532C2.72533 58.8413 3.416 58.3 4.312 57.908C5.22667 57.516 6.272 57.32 7.448 57.32C9.20267 57.32 10.612 57.768 11.676 58.664C12.7587 59.5413 13.3373 60.7453 13.412 62.276H10.22C10.164 61.5853 9.884 61.0347 9.38 60.624C8.876 60.2133 8.19467 60.008 7.336 60.008C6.496 60.008 5.852 60.1667 5.404 60.484C4.956 60.8013 4.732 61.2213 4.732 61.744C4.732 62.1547 4.88133 62.5 5.18 62.78C5.47867 63.06 5.84267 63.284 6.272 63.452C6.70133 63.6013 7.336 63.7973 8.176 64.04C9.296 64.3387 10.2107 64.6467 10.92 64.964C11.648 65.2627 12.2733 65.7107 12.796 66.308C13.3187 66.9053 13.5893 67.6987 13.608 68.688C13.608 69.5653 13.3653 70.3493 12.88 71.04C12.3947 71.7307 11.704 72.272 10.808 72.664C9.93067 73.056 8.89467 73.252 7.7 73.252ZM23.749 73.252C22.293 73.252 20.977 72.9253 19.801 72.272C18.625 71.6 17.701 70.6667 17.029 69.472C16.357 68.2587 16.021 66.8587 16.021 65.272C16.021 63.704 16.3664 62.3133 17.057 61.1C17.7477 59.8867 18.6904 58.9533 19.885 58.3C21.0797 57.6467 22.4144 57.32 23.889 57.32C25.3637 57.32 26.6984 57.6467 27.893 58.3C29.0877 58.9533 30.0304 59.8867 30.721 61.1C31.4117 62.3133 31.757 63.704 31.757 65.272C31.757 66.84 31.4024 68.2307 30.693 69.444C29.9837 70.6573 29.013 71.6 27.781 72.272C26.5677 72.9253 25.2237 73.252 23.749 73.252ZM23.749 70.48C24.5704 70.48 25.3357 70.284 26.045 69.892C26.773 69.5 27.361 68.912 27.809 68.128C28.257 67.344 28.481 66.392 28.481 65.272C28.481 64.152 28.2664 63.2093 27.837 62.444C27.4077 61.66 26.8384 61.072 26.129 60.68C25.4197 60.288 24.6544 60.092 23.833 60.092C23.0117 60.092 22.2464 60.288 21.537 60.68C20.8464 61.072 20.2957 61.66 19.885 62.444C19.4744 63.2093 19.269 64.152 19.269 65.272C19.269 66.9333 19.689 68.2213 20.529 69.136C21.3877 70.032 22.461 70.48 23.749 70.48ZM53.5885 57.32C54.8018 57.32 55.8845 57.572 56.8365 58.076C57.8072 58.58 58.5632 59.3267 59.1045 60.316C59.6645 61.3053 59.9445 62.5 59.9445 63.9V73H56.7805V64.376C56.7805 62.9947 56.4352 61.94 55.7445 61.212C55.0538 60.4653 54.1112 60.092 52.9165 60.092C51.7218 60.092 50.7698 60.4653 50.0605 61.212C49.3698 61.94 49.0245 62.9947 49.0245 64.376V73H45.8605V64.376C45.8605 62.9947 45.5152 61.94 44.8245 61.212C44.1338 60.4653 43.1912 60.092 41.9965 60.092C40.8018 60.092 39.8498 60.4653 39.1405 61.212C38.4498 61.94 38.1045 62.9947 38.1045 64.376V73H34.9125V57.572H38.1045V59.336C38.6272 58.7013 39.2898 58.2067 40.0925 57.852C40.8952 57.4973 41.7538 57.32 42.6685 57.32C43.9005 57.32 45.0018 57.5813 45.9725 58.104C46.9432 58.6267 47.6898 59.3827 48.2125 60.372C48.6792 59.4387 49.4072 58.7013 50.3965 58.16C51.3858 57.6 52.4498 57.32 53.5885 57.32ZM78.1463 64.908C78.1463 65.4867 78.1089 66.0093 78.0343 66.476H66.2463C66.3396 67.708 66.7969 68.6973 67.6183 69.444C68.4396 70.1907 69.4476 70.564 70.6423 70.564C72.3596 70.564 73.5729 69.8453 74.2823 68.408H77.7262C77.2596 69.8267 76.4103 70.9933 75.1783 71.908C73.9649 72.804 72.4529 73.252 70.6423 73.252C69.1676 73.252 67.8423 72.9253 66.6663 72.272C65.5089 71.6 64.5943 70.6667 63.9223 69.472C63.2689 68.2587 62.9423 66.8587 62.9423 65.272C62.9423 63.6853 63.2596 62.2947 63.8943 61.1C64.5476 59.8867 65.4529 58.9533 66.6103 58.3C67.7863 57.6467 69.1303 57.32 70.6423 57.32C72.0983 57.32 73.3956 57.6373 74.5343 58.272C75.6729 58.9067 76.5596 59.8027 77.1943 60.96C77.8289 62.0987 78.1463 63.4147 78.1463 64.908ZM74.8143 63.9C74.7956 62.724 74.3756 61.7813 73.5543 61.072C72.7329 60.3627 71.7156 60.008 70.5023 60.008C69.4009 60.008 68.4583 60.3627 67.6743 61.072C66.8903 61.7627 66.4236 62.7053 66.2743 63.9H74.8143ZM87.4969 65.216C87.4969 63.6667 87.8143 62.2947 88.4489 61.1C89.1023 59.9053 89.9796 58.9813 91.0809 58.328C92.2009 57.656 93.4329 57.32 94.7769 57.32C95.9903 57.32 97.0449 57.5627 97.9409 58.048C98.8556 58.5147 99.5836 59.1027 100.125 59.812V57.572H103.345V73H100.125V70.704C99.5836 71.432 98.8463 72.0387 97.9129 72.524C96.9796 73.0093 95.9156 73.252 94.7209 73.252C93.3956 73.252 92.1823 72.916 91.0809 72.244C89.9796 71.5533 89.1023 70.6013 88.4489 69.388C87.8143 68.156 87.4969 66.7653 87.4969 65.216ZM100.125 65.272C100.125 64.208 99.9009 63.284 99.4529 62.5C99.0236 61.716 98.4543 61.1187 97.7449 60.708C97.0356 60.2973 96.2703 60.092 95.4489 60.092C94.6276 60.092 93.8623 60.2973 93.1529 60.708C92.4436 61.1 91.8649 61.688 91.4169 62.472C90.9876 63.2373 90.7729 64.152 90.7729 65.216C90.7729 66.28 90.9876 67.2133 91.4169 68.016C91.8649 68.8187 92.4436 69.4347 93.1529 69.864C93.8809 70.2747 94.6463 70.48 95.4489 70.48C96.2703 70.48 97.0356 70.2747 97.7449 69.864C98.4543 69.4533 99.0236 68.856 99.4529 68.072C99.9009 67.2693 100.125 66.336 100.125 65.272ZM106.474 65.272C106.474 63.6853 106.791 62.2947 107.426 61.1C108.079 59.8867 108.975 58.9533 110.114 58.3C111.252 57.6467 112.559 57.32 114.034 57.32C115.9 57.32 117.44 57.768 118.654 58.664C119.886 59.5413 120.716 60.8013 121.146 62.444H117.702C117.422 61.6787 116.974 61.0813 116.358 60.652C115.742 60.2227 114.967 60.008 114.034 60.008C112.727 60.008 111.682 60.4747 110.898 61.408C110.132 62.3227 109.75 63.6107 109.75 65.272C109.75 66.9333 110.132 68.2307 110.898 69.164C111.682 70.0973 112.727 70.564 114.034 70.564C115.882 70.564 117.104 69.752 117.702 68.128H121.146C120.698 69.696 119.858 70.9467 118.626 71.88C117.394 72.7947 115.863 73.252 114.034 73.252C112.559 73.252 111.252 72.9253 110.114 72.272C108.975 71.6 108.079 70.6667 107.426 69.472C106.791 68.2587 106.474 66.8587 106.474 65.272ZM128.051 60.176V68.716C128.051 69.2947 128.181 69.7147 128.443 69.976C128.723 70.2187 129.189 70.34 129.843 70.34H131.803V73H129.283C127.845 73 126.744 72.664 125.979 71.992C125.213 71.32 124.831 70.228 124.831 68.716V60.176H123.011V57.572H124.831V53.736H128.051V57.572H131.803V60.176H128.051ZM136.369 55.528C135.79 55.528 135.305 55.332 134.913 54.94C134.521 54.548 134.325 54.0627 134.325 53.484C134.325 52.9053 134.521 52.42 134.913 52.028C135.305 51.636 135.79 51.44 136.369 51.44C136.929 51.44 137.405 51.636 137.797 52.028C138.189 52.42 138.385 52.9053 138.385 53.484C138.385 54.0627 138.189 54.548 137.797 54.94C137.405 55.332 136.929 55.528 136.369 55.528ZM137.937 57.572V73H134.745V57.572H137.937ZM148.091 70.144L152.459 57.572H155.847L149.967 73H146.159L140.307 57.572H143.723L148.091 70.144ZM159.884 55.528C159.305 55.528 158.82 55.332 158.428 54.94C158.036 54.548 157.84 54.0627 157.84 53.484C157.84 52.9053 158.036 52.42 158.428 52.028C158.82 51.636 159.305 51.44 159.884 51.44C160.444 51.44 160.92 51.636 161.312 52.028C161.704 52.42 161.9 52.9053 161.9 53.484C161.9 54.0627 161.704 54.548 161.312 54.94C160.92 55.332 160.444 55.528 159.884 55.528ZM161.452 57.572V73H158.26V57.572H161.452ZM169.367 60.176V68.716C169.367 69.2947 169.498 69.7147 169.759 69.976C170.039 70.2187 170.506 70.34 171.159 70.34H173.119V73H170.599C169.162 73 168.06 72.664 167.295 71.992C166.53 71.32 166.147 70.228 166.147 68.716V60.176H164.327V57.572H166.147V53.736H169.367V57.572H173.119V60.176H169.367ZM177.685 55.528C177.106 55.528 176.621 55.332 176.229 54.94C175.837 54.548 175.641 54.0627 175.641 53.484C175.641 52.9053 175.837 52.42 176.229 52.028C176.621 51.636 177.106 51.44 177.685 51.44C178.245 51.44 178.721 51.636 179.113 52.028C179.505 52.42 179.701 52.9053 179.701 53.484C179.701 54.0627 179.505 54.548 179.113 54.94C178.721 55.332 178.245 55.528 177.685 55.528ZM179.253 57.572V73H176.061V57.572H179.253ZM197.584 64.908C197.584 65.4867 197.546 66.0093 197.472 66.476H185.684C185.777 67.708 186.234 68.6973 187.056 69.444C187.877 70.1907 188.885 70.564 190.08 70.564C191.797 70.564 193.01 69.8453 193.72 68.408H197.164C196.697 69.8267 195.848 70.9933 194.616 71.908C193.402 72.804 191.89 73.252 190.08 73.252C188.605 73.252 187.28 72.9253 186.104 72.272C184.946 71.6 184.032 70.6667 183.36 69.472C182.706 68.2587 182.38 66.8587 182.38 65.272C182.38 63.6853 182.697 62.2947 183.332 61.1C183.985 59.8867 184.89 58.9533 186.048 58.3C187.224 57.6467 188.568 57.32 190.08 57.32C191.536 57.32 192.833 57.6373 193.972 58.272C195.11 58.9067 195.997 59.8027 196.632 60.96C197.266 62.0987 197.584 63.4147 197.584 64.908ZM194.252 63.9C194.233 62.724 193.813 61.7813 192.992 61.072C192.17 60.3627 191.153 60.008 189.94 60.008C188.838 60.008 187.896 60.3627 187.112 61.072C186.328 61.7627 185.861 62.7053 185.712 63.9H194.252ZM206.325 73.252C205.112 73.252 204.02 73.0373 203.049 72.608C202.097 72.16 201.341 71.5627 200.781 70.816C200.221 70.0507 199.922 69.2013 199.885 68.268H203.189C203.245 68.9213 203.553 69.472 204.113 69.92C204.692 70.3493 205.41 70.564 206.269 70.564C207.165 70.564 207.856 70.396 208.341 70.06C208.845 69.7053 209.097 69.2573 209.097 68.716C209.097 68.1373 208.817 67.708 208.257 67.428C207.716 67.148 206.848 66.84 205.653 66.504C204.496 66.1867 203.553 65.8787 202.825 65.58C202.097 65.2813 201.462 64.824 200.921 64.208C200.398 63.592 200.137 62.78 200.137 61.772C200.137 60.9507 200.38 60.204 200.865 59.532C201.35 58.8413 202.041 58.3 202.937 57.908C203.852 57.516 204.897 57.32 206.073 57.32C207.828 57.32 209.237 57.768 210.301 58.664C211.384 59.5413 211.962 60.7453 212.037 62.276H208.845C208.789 61.5853 208.509 61.0347 208.005 60.624C207.501 60.2133 206.82 60.008 205.961 60.008C205.121 60.008 204.477 60.1667 204.029 60.484C203.581 60.8013 203.357 61.2213 203.357 61.744C203.357 62.1547 203.506 62.5 203.805 62.78C204.104 63.06 204.468 63.284 204.897 63.452C205.326 63.6013 205.961 63.7973 206.801 64.04C207.921 64.3387 208.836 64.6467 209.545 64.964C210.273 65.2627 210.898 65.7107 211.421 66.308C211.944 66.9053 212.214 67.6987 212.233 68.688C212.233 69.5653 211.99 70.3493 211.505 71.04C211.02 71.7307 210.329 72.272 209.433 72.664C208.556 73.056 207.52 73.252 206.325 73.252Z" fill="#171717"/>
<defs>
<filter id="filter0_d_35_31" x="87.4658" y="65.127" width="126.886" height="23.7603" filterUnits="userSpaceOnUse" color-interpolation-filters="sRGB">
<feFlood flood-opacity="0" result="BackgroundImageFix"/>
<feColorMatrix in="SourceAlpha" type="matrix" values="0 0 0 0 0 0 0 0 0 0 0 0 0 0 0 0 0 0 127 0" result="hardAlpha"/>
<feOffset/>
<feGaussianBlur stdDeviation="2"/>
<feComposite in2="hardAlpha" operator="out"/>
<feColorMatrix type="matrix" values="0 0 0 0 1 0 0 0 0 0.891833 0 0 0 0 0.508333 0 0 0 0.6 0"/>
<feBlend mode="normal" in2="BackgroundImageFix" result="effect1_dropShadow_35_31"/>
<feBlend mode="normal" in="SourceGraphic" in2="effect1_dropShadow_35_31" result="shape"/>
</filter>
</defs>
</svg>
