<svg width="273" height="86" viewBox="0 0 273 86" fill="none" xmlns="http://www.w3.org/2000/svg">
<g filter="url(#filter0_d_27_26)">
<path d="M203 79.185C215.656 75.5544 235.086 70.0138 255.082 71.6403C270.863 72.9239 268.813 78.5167 263.291 79.6514" stroke="#FFE382" stroke-width="3" stroke-linecap="round"/>
</g>
<path d="M13.552 11.54V14.144H5.292V19.884H11.732V22.488H5.292V31H2.1V11.54H13.552ZM18.1342 13.528C17.5555 13.528 17.0702 13.332 16.6782 12.94C16.2862 12.548 16.0902 12.0627 16.0902 11.484C16.0902 10.9053 16.2862 10.42 16.6782 10.028C17.0702 9.636 17.5555 9.44 18.1342 9.44C18.6942 9.44 19.1702 9.636 19.5622 10.028C19.9542 10.42 20.1502 10.9053 20.1502 11.484C20.1502 12.0627 19.9542 12.548 19.5622 12.94C19.1702 13.332 18.6942 13.528 18.1342 13.528ZM19.7022 15.572V31H16.5102V15.572H19.7022ZM27.085 17.812C27.5516 17.028 28.1676 16.4213 28.933 15.992C29.717 15.544 30.641 15.32 31.705 15.32V18.624H30.893C29.6423 18.624 28.6903 18.9413 28.037 19.576C27.4023 20.2107 27.085 21.312 27.085 22.88V31H23.893V15.572H27.085V17.812ZM40.2391 31.252C39.0257 31.252 37.9337 31.0373 36.9631 30.608C36.0111 30.16 35.2551 29.5627 34.6951 28.816C34.1351 28.0507 33.8364 27.2013 33.7991 26.268H37.1031C37.1591 26.9213 37.4671 27.472 38.0271 27.92C38.6057 28.3493 39.3244 28.564 40.1831 28.564C41.0791 28.564 41.7697 28.396 42.2551 28.06C42.7591 27.7053 43.0111 27.2573 43.0111 26.716C43.0111 26.1373 42.7311 25.708 42.1711 25.428C41.6297 25.148 40.7617 24.84 39.5671 24.504C38.4097 24.1867 37.4671 23.8787 36.7391 23.58C36.0111 23.2813 35.3764 22.824 34.8351 22.208C34.3124 21.592 34.0511 20.78 34.0511 19.772C34.0511 18.9507 34.2937 18.204 34.7791 17.532C35.2644 16.8413 35.9551 16.3 36.8511 15.908C37.7657 15.516 38.8111 15.32 39.9871 15.32C41.7417 15.32 43.1511 15.768 44.2151 16.664C45.2977 17.5413 45.8764 18.7453 45.9511 20.276H42.7591C42.7031 19.5853 42.4231 19.0347 41.9191 18.624C41.4151 18.2133 40.7337 18.008 39.8751 18.008C39.0351 18.008 38.3911 18.1667 37.9431 18.484C37.4951 18.8013 37.2711 19.2213 37.2711 19.744C37.2711 20.1547 37.4204 20.5 37.7191 20.78C38.0177 21.06 38.3817 21.284 38.8111 21.452C39.2404 21.6013 39.8751 21.7973 40.7151 22.04C41.8351 22.3387 42.7497 22.6467 43.4591 22.964C44.1871 23.2627 44.8124 23.7107 45.3351 24.308C45.8577 24.9053 46.1284 25.6987 46.1471 26.688C46.1471 27.5653 45.9044 28.3493 45.4191 29.04C44.9337 29.7307 44.2431 30.272 43.3471 30.664C42.4697 31.056 41.4337 31.252 40.2391 31.252ZM53.3201 18.176V26.716C53.3201 27.2947 53.4508 27.7147 53.7121 27.976C53.9921 28.2187 54.4588 28.34 55.1121 28.34H57.0721V31H54.5521C53.1148 31 52.0134 30.664 51.2481 29.992C50.4828 29.32 50.1001 28.228 50.1001 26.716V18.176H48.2801V15.572H50.1001V11.736H53.3201V15.572H57.0721V18.176H53.3201ZM63.2061 10.28V31H60.0141V10.28H63.2061ZM81.2849 15.572L71.8209 38.252H68.5169L71.6529 30.748L65.5769 15.572H69.1329L73.4729 27.332L77.9809 15.572H81.2849ZM87.1938 27.164L83.8058 34.892H81.7338L83.7218 27.164H87.1938ZM5.292 52.28V73H2.1V52.28H5.292ZM23.6228 64.908C23.6228 65.4867 23.5855 66.0093 23.5108 66.476H11.7228C11.8161 67.708 12.2735 68.6973 13.0948 69.444C13.9161 70.1907 14.9241 70.564 16.1188 70.564C17.8361 70.564 19.0495 69.8453 19.7588 68.408H23.2028C22.7361 69.8267 21.8868 70.9933 20.6548 71.908C19.4415 72.804 17.9295 73.252 16.1188 73.252C14.6441 73.252 13.3188 72.9253 12.1428 72.272C10.9855 71.6 10.0708 70.6667 9.39881 69.472C8.74548 68.2587 8.41881 66.8587 8.41881 65.272C8.41881 63.6853 8.73615 62.2947 9.37081 61.1C10.0241 59.8867 10.9295 58.9533 12.0868 58.3C13.2628 57.6467 14.6068 57.32 16.1188 57.32C17.5748 57.32 18.8721 57.6373 20.0108 58.272C21.1495 58.9067 22.0361 59.8027 22.6708 60.96C23.3055 62.0987 23.6228 63.4147 23.6228 64.908ZM20.2908 63.9C20.2721 62.724 19.8521 61.7813 19.0308 61.072C18.2095 60.3627 17.1921 60.008 15.9788 60.008C14.8775 60.008 13.9348 60.3627 13.1508 61.072C12.3668 61.7627 11.9001 62.7053 11.7508 63.9H20.2908ZM30.4881 60.176V68.716C30.4881 69.2947 30.6187 69.7147 30.8801 69.976C31.1601 70.2187 31.6267 70.34 32.2801 70.34H34.2401V73H31.7201C30.2827 73 29.1814 72.664 28.4161 71.992C27.6507 71.32 27.2681 70.228 27.2681 68.716V60.176H25.4481V57.572H27.2681V53.736H30.4881V57.572H34.2401V60.176H30.4881ZM37.686 53.54H41.158L38.218 60.204H35.978L37.686 53.54ZM49.5633 73.252C48.3499 73.252 47.2579 73.0373 46.2873 72.608C45.3353 72.16 44.5793 71.5627 44.0193 70.816C43.4593 70.0507 43.1606 69.2013 43.1233 68.268H46.4273C46.4833 68.9213 46.7913 69.472 47.3513 69.92C47.9299 70.3493 48.6486 70.564 49.5073 70.564C50.4033 70.564 51.0939 70.396 51.5793 70.06C52.0833 69.7053 52.3353 69.2573 52.3353 68.716C52.3353 68.1373 52.0553 67.708 51.4953 67.428C50.9539 67.148 50.0859 66.84 48.8913 66.504C47.7339 66.1867 46.7913 65.8787 46.0633 65.58C45.3353 65.2813 44.7006 64.824 44.1593 64.208C43.6366 63.592 43.3753 62.78 43.3753 61.772C43.3753 60.9507 43.6179 60.204 44.1033 59.532C44.5886 58.8413 45.2793 58.3 46.1753 57.908C47.0899 57.516 48.1353 57.32 49.3113 57.32C51.0659 57.32 52.4753 57.768 53.5393 58.664C54.6219 59.5413 55.2006 60.7453 55.2753 62.276H52.0833C52.0273 61.5853 51.7473 61.0347 51.2433 60.624C50.7393 60.2133 50.0579 60.008 49.1993 60.008C48.3593 60.008 47.7153 60.1667 47.2673 60.484C46.8193 60.8013 46.5953 61.2213 46.5953 61.744C46.5953 62.1547 46.7446 62.5 47.0433 62.78C47.3419 63.06 47.7059 63.284 48.1353 63.452C48.5646 63.6013 49.1993 63.7973 50.0393 64.04C51.1593 64.3387 52.0739 64.6467 52.7833 64.964C53.5113 65.2627 54.1366 65.7107 54.6593 66.308C55.1819 66.9053 55.4526 67.6987 55.4713 68.688C55.4713 69.5653 55.2286 70.3493 54.7433 71.04C54.2579 71.7307 53.5673 72.272 52.6713 72.664C51.7939 73.056 50.7579 73.252 49.5633 73.252ZM65.1298 65.272C65.1298 63.6853 65.4471 62.2947 66.0818 61.1C66.7351 59.8867 67.6311 58.9533 68.7698 58.3C69.9084 57.6467 71.2151 57.32 72.6898 57.32C74.5564 57.32 76.0964 57.768 77.3098 58.664C78.5418 59.5413 79.3724 60.8013 79.8018 62.444H76.3578C76.0778 61.6787 75.6298 61.0813 75.0138 60.652C74.3978 60.2227 73.6231 60.008 72.6898 60.008C71.3831 60.008 70.3378 60.4747 69.5538 61.408C68.7884 62.3227 68.4058 63.6107 68.4058 65.272C68.4058 66.9333 68.7884 68.2307 69.5538 69.164C70.3378 70.0973 71.3831 70.564 72.6898 70.564C74.5378 70.564 75.7604 69.752 76.3578 68.128H79.8018C79.3538 69.696 78.5138 70.9467 77.2818 71.88C76.0498 72.7947 74.5191 73.252 72.6898 73.252C71.2151 73.252 69.9084 72.9253 68.7698 72.272C67.6311 71.6 66.7351 70.6667 66.0818 69.472C65.4471 68.2587 65.1298 66.8587 65.1298 65.272ZM90.9628 57.32C92.1388 57.32 93.1841 57.572 94.0988 58.076C95.0321 58.58 95.7601 59.3267 96.2828 60.316C96.8241 61.3053 97.0948 62.5 97.0948 63.9V73H93.9308V64.376C93.9308 62.9947 93.5855 61.94 92.8948 61.212C92.2041 60.4653 91.2615 60.092 90.0668 60.092C88.8721 60.092 87.9201 60.4653 87.2108 61.212C86.5201 61.94 86.1748 62.9947 86.1748 64.376V73H82.9828V52.28H86.1748V59.364C86.7161 58.7107 87.3975 58.2067 88.2188 57.852C89.0588 57.4973 89.9735 57.32 90.9628 57.32ZM107.858 73.252C106.402 73.252 105.086 72.9253 103.91 72.272C102.734 71.6 101.81 70.6667 101.138 69.472C100.466 68.2587 100.13 66.8587 100.13 65.272C100.13 63.704 100.476 62.3133 101.166 61.1C101.857 59.8867 102.8 58.9533 103.994 58.3C105.189 57.6467 106.524 57.32 107.998 57.32C109.473 57.32 110.808 57.6467 112.002 58.3C113.197 58.9533 114.14 59.8867 114.83 61.1C115.521 62.3133 115.866 63.704 115.866 65.272C115.866 66.84 115.512 68.2307 114.802 69.444C114.093 70.6573 113.122 71.6 111.89 72.272C110.677 72.9253 109.333 73.252 107.858 73.252ZM107.858 70.48C108.68 70.48 109.445 70.284 110.154 69.892C110.882 69.5 111.47 68.912 111.918 68.128C112.366 67.344 112.59 66.392 112.59 65.272C112.59 64.152 112.376 63.2093 111.946 62.444C111.517 61.66 110.948 61.072 110.238 60.68C109.529 60.288 108.764 60.092 107.942 60.092C107.121 60.092 106.356 60.288 105.646 60.68C104.956 61.072 104.405 61.66 103.994 62.444C103.584 63.2093 103.378 64.152 103.378 65.272C103.378 66.9333 103.798 68.2213 104.638 69.136C105.497 70.032 106.57 70.48 107.858 70.48ZM125.714 73.252C124.258 73.252 122.942 72.9253 121.766 72.272C120.59 71.6 119.666 70.6667 118.994 69.472C118.322 68.2587 117.986 66.8587 117.986 65.272C117.986 63.704 118.331 62.3133 119.022 61.1C119.713 59.8867 120.655 58.9533 121.85 58.3C123.045 57.6467 124.379 57.32 125.854 57.32C127.329 57.32 128.663 57.6467 129.858 58.3C131.053 58.9533 131.995 59.8867 132.686 61.1C133.377 62.3133 133.722 63.704 133.722 65.272C133.722 66.84 133.367 68.2307 132.658 69.444C131.949 70.6573 130.978 71.6 129.746 72.272C128.533 72.9253 127.189 73.252 125.714 73.252ZM125.714 70.48C126.535 70.48 127.301 70.284 128.01 69.892C128.738 69.5 129.326 68.912 129.774 68.128C130.222 67.344 130.446 66.392 130.446 65.272C130.446 64.152 130.231 63.2093 129.802 62.444C129.373 61.66 128.803 61.072 128.094 60.68C127.385 60.288 126.619 60.092 125.798 60.092C124.977 60.092 124.211 60.288 123.502 60.68C122.811 61.072 122.261 61.66 121.85 62.444C121.439 63.2093 121.234 64.152 121.234 65.272C121.234 66.9333 121.654 68.2213 122.494 69.136C123.353 70.032 124.426 70.48 125.714 70.48ZM142.477 73.252C141.264 73.252 140.172 73.0373 139.201 72.608C138.249 72.16 137.493 71.5627 136.933 70.816C136.373 70.0507 136.075 69.2013 136.037 68.268H139.341C139.397 68.9213 139.705 69.472 140.265 69.92C140.844 70.3493 141.563 70.564 142.421 70.564C143.317 70.564 144.008 70.396 144.493 70.06C144.997 69.7053 145.249 69.2573 145.249 68.716C145.249 68.1373 144.969 67.708 144.409 67.428C143.868 67.148 143 66.84 141.805 66.504C140.648 66.1867 139.705 65.8787 138.977 65.58C138.249 65.2813 137.615 64.824 137.073 64.208C136.551 63.592 136.289 62.78 136.289 61.772C136.289 60.9507 136.532 60.204 137.017 59.532C137.503 58.8413 138.193 58.3 139.089 57.908C140.004 57.516 141.049 57.32 142.225 57.32C143.98 57.32 145.389 57.768 146.453 58.664C147.536 59.5413 148.115 60.7453 148.189 62.276H144.997C144.941 61.5853 144.661 61.0347 144.157 60.624C143.653 60.2133 142.972 60.008 142.113 60.008C141.273 60.008 140.629 60.1667 140.181 60.484C139.733 60.8013 139.509 61.2213 139.509 61.744C139.509 62.1547 139.659 62.5 139.957 62.78C140.256 63.06 140.62 63.284 141.049 63.452C141.479 63.6013 142.113 63.7973 142.953 64.04C144.073 64.3387 144.988 64.6467 145.697 64.964C146.425 65.2627 147.051 65.7107 147.573 66.308C148.096 66.9053 148.367 67.6987 148.385 68.688C148.385 69.5653 148.143 70.3493 147.657 71.04C147.172 71.7307 146.481 72.272 145.585 72.664C144.708 73.056 143.672 73.252 142.477 73.252ZM165.974 64.908C165.974 65.4867 165.937 66.0093 165.862 66.476H154.074C154.168 67.708 154.625 68.6973 155.446 69.444C156.268 70.1907 157.276 70.564 158.47 70.564C160.188 70.564 161.401 69.8453 162.11 68.408H165.554C165.088 69.8267 164.238 70.9933 163.006 71.908C161.793 72.804 160.281 73.252 158.47 73.252C156.996 73.252 155.67 72.9253 154.494 72.272C153.337 71.6 152.422 70.6667 151.75 69.472C151.097 68.2587 150.77 66.8587 150.77 65.272C150.77 63.6853 151.088 62.2947 151.722 61.1C152.376 59.8867 153.281 58.9533 154.438 58.3C155.614 57.6467 156.958 57.32 158.47 57.32C159.926 57.32 161.224 57.6373 162.362 58.272C163.501 58.9067 164.388 59.8027 165.022 60.96C165.657 62.0987 165.974 63.4147 165.974 64.908ZM162.642 63.9C162.624 62.724 162.204 61.7813 161.382 61.072C160.561 60.3627 159.544 60.008 158.33 60.008C157.229 60.008 156.286 60.3627 155.502 61.072C154.718 61.7627 154.252 62.7053 154.102 63.9H162.642ZM175.325 65.216C175.325 63.6667 175.642 62.2947 176.277 61.1C176.93 59.9053 177.808 58.9813 178.909 58.328C180.029 57.656 181.261 57.32 182.605 57.32C183.818 57.32 184.873 57.5627 185.769 58.048C186.684 58.5147 187.412 59.1027 187.953 59.812V57.572H191.173V73H187.953V70.704C187.412 71.432 186.674 72.0387 185.741 72.524C184.808 73.0093 183.744 73.252 182.549 73.252C181.224 73.252 180.01 72.916 178.909 72.244C177.808 71.5533 176.93 70.6013 176.277 69.388C175.642 68.156 175.325 66.7653 175.325 65.216ZM187.953 65.272C187.953 64.208 187.729 63.284 187.281 62.5C186.852 61.716 186.282 61.1187 185.573 60.708C184.864 60.2973 184.098 60.092 183.277 60.092C182.456 60.092 181.69 60.2973 180.981 60.708C180.272 61.1 179.693 61.688 179.245 62.472C178.816 63.2373 178.601 64.152 178.601 65.216C178.601 66.28 178.816 67.2133 179.245 68.016C179.693 68.8187 180.272 69.4347 180.981 69.864C181.709 70.2747 182.474 70.48 183.277 70.48C184.098 70.48 184.864 70.2747 185.573 69.864C186.282 69.4533 186.852 68.856 187.281 68.072C187.729 67.2693 187.953 66.336 187.953 65.272ZM201.575 65.216C201.575 63.6667 201.892 62.2947 202.527 61.1C203.18 59.9053 204.058 58.9813 205.159 58.328C206.279 57.656 207.52 57.32 208.883 57.32C209.891 57.32 210.88 57.544 211.851 57.992C212.84 58.4213 213.624 59 214.203 59.728V52.28H217.423V73H214.203V70.676C213.68 71.4227 212.952 72.0387 212.019 72.524C211.104 73.0093 210.05 73.252 208.855 73.252C207.511 73.252 206.279 72.916 205.159 72.244C204.058 71.5533 203.18 70.6013 202.527 69.388C201.892 68.156 201.575 66.7653 201.575 65.216ZM214.203 65.272C214.203 64.208 213.979 63.284 213.531 62.5C213.102 61.716 212.532 61.1187 211.823 60.708C211.114 60.2973 210.348 60.092 209.527 60.092C208.706 60.092 207.94 60.2973 207.231 60.708C206.522 61.1 205.943 61.688 205.495 62.472C205.066 63.2373 204.851 64.152 204.851 65.216C204.851 66.28 205.066 67.2133 205.495 68.016C205.943 68.8187 206.522 69.4347 207.231 69.864C207.959 70.2747 208.724 70.48 209.527 70.48C210.348 70.48 211.114 70.2747 211.823 69.864C212.532 69.4533 213.102 68.856 213.531 68.072C213.979 67.2693 214.203 66.336 214.203 65.272ZM220.552 65.216C220.552 63.6667 220.869 62.2947 221.504 61.1C222.157 59.9053 223.034 58.9813 224.136 58.328C225.256 57.656 226.488 57.32 227.832 57.32C229.045 57.32 230.1 57.5627 230.996 58.048C231.91 58.5147 232.638 59.1027 233.18 59.812V57.572H236.4V73H233.18V70.704C232.638 71.432 231.901 72.0387 230.968 72.524C230.034 73.0093 228.97 73.252 227.776 73.252C226.45 73.252 225.237 72.916 224.136 72.244C223.034 71.5533 222.157 70.6013 221.504 69.388C220.869 68.156 220.552 66.7653 220.552 65.216ZM233.18 65.272C233.18 64.208 232.956 63.284 232.508 62.5C232.078 61.716 231.509 61.1187 230.8 60.708C230.09 60.2973 229.325 60.092 228.504 60.092C227.682 60.092 226.917 60.2973 226.208 60.708C225.498 61.1 224.92 61.688 224.472 62.472C224.042 63.2373 223.828 64.152 223.828 65.216C223.828 66.28 224.042 67.2133 224.472 68.016C224.92 68.8187 225.498 69.4347 226.208 69.864C226.936 70.2747 227.701 70.48 228.504 70.48C229.325 70.48 230.09 70.2747 230.8 69.864C231.509 69.4533 232.078 68.856 232.508 68.072C232.956 67.2693 233.18 66.336 233.18 65.272ZM244.316 60.176V68.716C244.316 69.2947 244.447 69.7147 244.708 69.976C244.988 70.2187 245.455 70.34 246.108 70.34H248.068V73H245.548C244.111 73 243.01 72.664 242.244 71.992C241.479 71.32 241.096 70.228 241.096 68.716V60.176H239.276V57.572H241.096V53.736H244.316V57.572H248.068V60.176H244.316ZM265.15 64.908C265.15 65.4867 265.113 66.0093 265.038 66.476H253.25C253.343 67.708 253.801 68.6973 254.622 69.444C255.443 70.1907 256.451 70.564 257.646 70.564C259.363 70.564 260.577 69.8453 261.286 68.408H264.73C264.263 69.8267 263.414 70.9933 262.182 71.908C260.969 72.804 259.457 73.252 257.646 73.252C256.171 73.252 254.846 72.9253 253.67 72.272C252.513 71.6 251.598 70.6667 250.926 69.472C250.273 68.2587 249.946 66.8587 249.946 65.272C249.946 63.6853 250.263 62.2947 250.898 61.1C251.551 59.8867 252.457 58.9533 253.614 58.3C254.79 57.6467 256.134 57.32 257.646 57.32C259.102 57.32 260.399 57.6373 261.538 58.272C262.677 58.9067 263.563 59.8027 264.198 60.96C264.833 62.0987 265.15 63.4147 265.15 64.908ZM261.818 63.9C261.799 62.724 261.379 61.7813 260.558 61.072C259.737 60.3627 258.719 60.008 257.506 60.008C256.405 60.008 255.462 60.3627 254.678 61.072C253.894 61.7627 253.427 62.7053 253.278 63.9H261.818Z" fill="#171717"/>
<defs>
<filter id="filter0_d_27_26" x="197.5" y="65.8488" width="75.3521" height="19.3029" filterUnits="userSpaceOnUse" color-interpolation-filters="sRGB">
<feFlood flood-opacity="0" result="BackgroundImageFix"/>
<feColorMatrix in="SourceAlpha" type="matrix" values="0 0 0 0 0 0 0 0 0 0 0 0 0 0 0 0 0 0 127 0" result="hardAlpha"/>
<feOffset/>
<feGaussianBlur stdDeviation="2"/>
<feComposite in2="hardAlpha" operator="out"/>
<feColorMatrix type="matrix" values="0 0 0 0 1 0 0 0 0 0.891833 0 0 0 0 0.508333 0 0 0 0.6 0"/>
<feBlend mode="normal" in2="BackgroundImageFix" result="effect1_dropShadow_27_26"/>
<feBlend mode="normal" in="SourceGraphic" in2="effect1_dropShadow_27_26" result="shape"/>
</filter>
</defs>
</svg>
