<svg width="390" height="844" viewBox="0 0 390 844" fill="none" xmlns="http://www.w3.org/2000/svg">
<g clip-path="url(#clip0_27_15)">
<rect width="390" height="844" rx="40" fill="white"/>
<mask id="mask0_27_15" style="mask-type:alpha" maskUnits="userSpaceOnUse" x="0" y="0" width="390" height="844">
<rect width="390" height="844" fill="#D9D9D9"/>
</mask>
<g mask="url(#mask0_27_15)">
<path d="M299.665 15H302.498H304.386L308.163 73.3827H317.605V82.9362H310.996V88.2437C322.326 92.4897 325.159 96.7357 325.159 97.7972C325.159 98.8587 327.047 111.597 325.159 113.72C323.648 115.418 319.494 116.55 317.605 116.904C316.85 270.61 335.545 419.433 344.987 474.631L362.927 481C363.242 482.415 363.682 485.671 362.927 487.369C361.983 489.492 361.039 490.553 359.15 491.615C357.639 492.464 358.521 503.291 359.15 508.599C357.577 511.43 354.24 517.516 353.485 519.214C352.73 520.912 356.947 528.414 359.15 531.952V537.26H355.373L389.365 638.102H412.97V691.177L506.446 855.71H514V896.048H426.189V878.002C411.396 839.788 364.06 763.147 293.056 762.298C222.052 761.449 175.974 839.08 161.811 878.002V896.048H74V850.403H81.5536L178.807 691.177V638.102H201.468L239.236 537.26H235.459V531.952C238.292 528.414 243.579 520.912 242.069 519.214C240.558 517.516 238.292 511.43 237.348 508.599C237.662 503.645 237.725 493.101 235.459 490.553C233.193 488.006 232.627 483.123 232.627 481L252.455 474.631C282.67 280.376 288.335 116.904 285.502 116.904C283.236 116.904 279.522 114.781 277.948 113.72C277.004 110.889 275.682 103.742 277.948 97.7972C280.215 91.8528 288.335 88.9514 292.112 88.2437V82.9362H285.502V73.3827H294.944L299.665 15Z" fill="url(#paint0_linear_27_15)" fill-opacity="0.15" stroke="white" stroke-width="2" stroke-linejoin="round"/>
<path d="M314.716 573.381H281.004L264.76 638.333H329.021L314.716 573.381Z" fill="white"/>
</g>
</g>
<defs>
<linearGradient id="paint0_linear_27_15" x1="294" y1="15" x2="294" y2="896.048" gradientUnits="userSpaceOnUse">
<stop stop-color="#FF67D4"/>
<stop offset="1" stop-color="#B655E4"/>
</linearGradient>
<clipPath id="clip0_27_15">
<rect width="390" height="844" rx="40" fill="white"/>
</clipPath>
</defs>
</svg>
