<svg width="849" height="864" viewBox="0 0 849 864" fill="none" xmlns="http://www.w3.org/2000/svg">
<g clip-path="url(#clip0_53_29)">
<rect width="849" height="864" fill="white"/>
<path d="M618.296 429L583.441 458.14M618.296 429L628.161 454.358M618.296 429L658.637 466.163M850.919 1027H785.754M850.919 1027L828.246 968.714M850.919 1027L882.744 1025.8M583.441 458.14L785.754 1027M583.441 458.14L547.827 487.913M785.754 1027H768.327M547.827 487.913L728.167 1027M547.827 487.913L514.487 515.786M728.167 1027H768.327M728.167 1027H704.677M514.487 515.786L671.337 1027M514.487 515.786L478.874 545.559M671.337 1027H704.677M671.337 1027H650.879M478.874 545.559L613.75 1027M478.874 545.559L442.503 575.966M613.75 1027H650.879M613.75 1027H591.776M442.503 575.966L558.436 1027M442.503 575.966L406.89 605.739M558.436 1027H591.776M558.436 1027H536.462M406.89 605.739L503.879 1027M406.89 605.739L370.519 636.146M503.879 1027H536.462M503.879 1027H482.663M370.519 636.146L450.838 1027M370.519 636.146L332.632 667.82M450.838 1027H482.663M450.838 1027H429.622M332.632 667.82L399.313 1027M332.632 667.82L294.746 699.494M399.313 1027H429.622M399.313 1027H373.55M294.746 699.494L347.787 1027M294.746 699.494L256.859 731.167M347.787 1027H373.55M347.787 1027H321.266M256.859 731.167L294.746 1027M256.859 731.167L217.458 764.108M294.746 1027H321.266M294.746 1027H274.287M217.458 764.108L248.524 1027M217.458 764.108L178.056 797.049M248.524 1027H274.287M248.524 1027H223.141M178.056 797.049L197.757 1027M178.056 797.049L137.896 830.623M197.757 1027H223.141M197.757 1027H174.646M137.896 830.623L151.535 1027M137.896 830.623L96.9786 864.831M151.535 1027H174.646M151.535 1027H128.046M96.9786 864.831L104.556 1027M96.9786 864.831L55.3036 899.672M104.556 1027H128.046M104.556 1027H82.2029M55.3036 899.672L59.8499 1027M55.3036 899.672L12.8707 935.146M59.8499 1027H82.2029M59.8499 1027H36.3603M12.8707 935.146V1027M12.8707 935.146L-29.5621 970.621M12.8707 1027H36.3603M12.8707 1027H-8.34569M-29.5621 970.621L-97 1027H-63.2811M-29.5621 970.621V1027M-29.5621 1027H-8.34569M-29.5621 1027H-63.2811M828.246 968.714L768.327 1027M828.246 968.714L811.756 926.324M828.246 968.714L889.563 1025.54M811.756 926.324L704.677 1027M811.756 926.324L795.855 885.448M811.756 926.324L923.661 1024.25M795.855 885.448L650.879 1027M795.855 885.448L781.208 847.795M795.855 885.448L946.393 1023.39M781.208 847.795L591.776 1027M781.208 847.795L766.998 811.266M781.208 847.795L975.944 1022.27M766.998 811.266L536.462 1027M766.998 811.266L752.864 774.932M766.998 811.266L997.161 1021.47M752.864 774.932L482.663 1027M752.864 774.932L739.908 741.625M752.864 774.932L1019.13 1020.63M739.908 741.625L429.622 1027M739.908 741.625L726.952 708.319M739.908 741.625L1041.11 1019.8M726.952 708.319L373.55 1027M726.952 708.319L714.584 676.527M726.952 708.319L1060.05 1019.09M714.584 676.527L321.266 1027M714.584 676.527L702.512 645.491M714.584 676.527L1079.75 1018.34M702.512 645.491L274.287 1027M702.512 645.491L692.172 618.91L691.028 615.97M702.512 645.491L1100.21 1017.57M691.028 615.97L223.141 1027M691.028 615.97L679.838 587.205M691.028 615.97L1119.91 1016.82M679.838 587.205L174.646 1027M679.838 587.205L669.238 559.954M679.838 587.205L1137.34 1016.16M669.238 559.954L128.046 1027M669.238 559.954L658.637 532.704M669.238 559.954L1156.28 1015.44M658.637 532.704L82.2029 1027M658.637 532.704L648.331 506.21M658.637 532.704L1172.95 1014.81M648.331 506.21L36.3603 1027M648.331 506.21L638.025 479.716M648.331 506.21L1190.38 1014.15M638.025 479.716L-8.34569 1027M638.025 479.716L628.161 454.358M638.025 479.716L1206.29 1013.55M628.161 454.358L-63.2811 1027M628.161 454.358L1225.24 1012.84M1225.24 1012.84L1251 1011.86L1190.38 956.018M1225.24 1012.84L1219.18 1013.07M1206.29 1013.55L1198.34 1013.85M1206.29 1013.55L1219.18 1013.07M1190.38 1014.15L1181.67 1014.48M1190.38 1014.15L1198.34 1013.85M1172.95 1014.81L1164.62 1015.13M1172.95 1014.81L1181.67 1014.48M1156.28 1015.44L1146.81 1015.8M1156.28 1015.44L1164.62 1015.13M1137.34 1016.16L1132.04 1016.36M1137.34 1016.16L1146.81 1015.8M1119.91 1016.82L1110.06 1017.19M1119.91 1016.82L1132.04 1016.36M1100.21 1017.57L1089.98 1017.95M1100.21 1017.57L1110.06 1017.19M1079.75 1018.34L1072.93 1018.6M1079.75 1018.34L1089.98 1017.95M1060.05 1019.09L1050.58 1019.44M1060.05 1019.09L1072.93 1018.6M1041.11 1019.8L1030.12 1020.22M1041.11 1019.8L1050.58 1019.44M1019.13 1020.63L1008.15 1021.05M1019.13 1020.63L1030.12 1020.22M997.161 1021.47L986.553 1021.87M997.161 1021.47L1008.15 1021.05M975.944 1022.27L961.169 1022.83M975.944 1022.27L986.553 1021.87M946.393 1023.39L935.027 1023.82M946.393 1023.39L961.169 1022.83M923.661 1024.25L911.537 1024.71M923.661 1024.25L935.027 1023.82M889.563 1025.54L882.744 1025.8M889.563 1025.54L911.537 1024.71M658.637 466.163L882.744 1025.8M658.637 466.163L692.172 497.056M692.172 497.056L911.537 1024.71M692.172 497.056L728.167 530.215M728.167 530.215L935.027 1023.82M728.167 530.215L756.961 556.741M756.961 556.741L961.169 1022.83M756.961 556.741L792.205 589.208M792.205 589.208L986.553 1021.87M792.205 589.208L824.446 618.91M824.446 618.91L1008.15 1021.05M824.446 618.91L857.739 649.58M857.739 649.58L1030.12 1020.22M857.739 649.58L889.563 678.897M889.563 678.897L1050.58 1019.44M889.563 678.897L921.501 708.319M921.501 708.319L1072.93 1018.6M921.501 708.319L957.655 741.625M957.655 741.625L1089.98 1017.95M957.655 741.625L990.341 771.736M990.341 771.736L1110.06 1017.19M990.341 771.736L1019.13 798.262M1019.13 798.262L1132.04 1016.36M1019.13 798.262L1050.58 827.23M1050.58 827.23L1146.81 1015.8M1050.58 827.23L1084.2 858.197M1084.2 858.197L1164.62 1015.13M1084.2 858.197L1119.91 891.1M1119.91 891.1L1181.67 1014.48M1119.91 891.1L1151.74 920.418M1151.74 920.418L1198.34 1013.85M1151.74 920.418L1190.38 956.018M1190.38 956.018L1219.18 1013.07" stroke="url(#paint0_linear_53_29)" stroke-width="2"/>
<path fill-rule="evenodd" clip-rule="evenodd" d="M793.498 35H790.665L785.944 93.3827H776.502V102.936H783.112V108.244C779.335 108.951 771.215 111.853 768.948 117.797C766.682 123.742 768.004 130.889 768.948 133.72C770.522 134.781 774.236 136.904 776.502 136.904C779.335 136.904 773.67 300.376 743.455 494.631L723.627 501C723.627 503.123 724.193 508.006 726.459 510.553C728.725 513.101 728.662 523.645 728.348 528.599C729.292 531.43 731.558 537.516 733.069 539.214C734.579 540.912 729.292 548.414 726.459 551.952V557.26H730.236L692.468 658.102H669.807V711.177L572.554 870.403H565V916.048H652.811V898.002C666.974 859.08 713.052 781.449 784.056 782.298C855.06 783.147 902.396 859.788 917.189 898.002V916.048H1005V875.71H997.446L903.97 711.177V658.102H880.365L846.373 557.26H850.15V551.952C847.947 548.414 843.73 540.912 844.485 539.214C845.24 537.516 848.577 531.43 850.15 528.599C849.521 523.291 848.639 512.464 850.15 511.615C852.039 510.553 852.983 509.492 853.927 507.369C854.682 505.671 854.242 502.415 853.927 501L835.987 494.631C826.545 439.433 807.85 290.61 808.605 136.904C810.494 136.55 814.648 135.418 816.159 133.72C817.689 131.999 816.739 123.307 816.324 119.508C816.227 118.619 816.159 117.998 816.159 117.797C816.159 116.736 813.326 112.49 801.996 108.244V102.936H808.605V93.3827H799.163L795.386 35H793.498ZM772.004 593.381H805.716L820.021 658.333H755.76L772.004 593.381Z" fill="url(#paint1_linear_53_29)"/>
</g>
<defs>
<linearGradient id="paint0_linear_53_29" x1="622" y1="419" x2="577.503" y2="1012.04" gradientUnits="userSpaceOnUse">
<stop stop-color="#FEE8FA"/>
<stop offset="1" stop-color="#F6E7FB"/>
</linearGradient>
<linearGradient id="paint1_linear_53_29" x1="785" y1="35" x2="785" y2="916.048" gradientUnits="userSpaceOnUse">
<stop stop-color="#FEE8F9"/>
<stop offset="1" stop-color="#F5E6FB"/>
</linearGradient>
<clipPath id="clip0_53_29">
<rect width="849" height="864" fill="white"/>
</clipPath>
</defs>
</svg>
