<svg width="279" height="87" viewBox="0 0 279 87" fill="none" xmlns="http://www.w3.org/2000/svg">
<g filter="url(#filter0_d_31_28)">
<path d="M202 80.185C215.961 76.5645 237.393 71.0394 259.457 72.6819C276.869 73.9781 274.612 79.5693 268.52 80.6996" stroke="#FFE382" stroke-width="3" stroke-linecap="round"/>
</g>
<path d="M18.088 31H14.896L5.292 16.468V31H2.1V11.512H5.292L14.896 26.016V11.512H18.088V31ZM36.4197 22.908C36.4197 23.4867 36.3824 24.0093 36.3077 24.476H24.5197C24.613 25.708 25.0704 26.6973 25.8917 27.444C26.713 28.1907 27.721 28.564 28.9157 28.564C30.633 28.564 31.8464 27.8453 32.5557 26.408H35.9997C35.533 27.8267 34.6837 28.9933 33.4517 29.908C32.2384 30.804 30.7264 31.252 28.9157 31.252C27.441 31.252 26.1157 30.9253 24.9397 30.272C23.7824 29.6 22.8677 28.6667 22.1957 27.472C21.5424 26.2587 21.2157 24.8587 21.2157 23.272C21.2157 21.6853 21.533 20.2947 22.1677 19.1C22.821 17.8867 23.7264 16.9533 24.8837 16.3C26.0597 15.6467 27.4037 15.32 28.9157 15.32C30.3717 15.32 31.669 15.6373 32.8077 16.272C33.9464 16.9067 34.833 17.8027 35.4677 18.96C36.1024 20.0987 36.4197 21.4147 36.4197 22.908ZM33.0877 21.9C33.069 20.724 32.649 19.7813 31.8277 19.072C31.0064 18.3627 29.989 18.008 28.7757 18.008C27.6744 18.008 26.7317 18.3627 25.9477 19.072C25.1637 19.7627 24.697 20.7053 24.5477 21.9H33.0877ZM46.1689 23.188L51.1529 31H47.5409L44.2089 25.764L41.0729 31H37.7409L42.7249 23.412L37.7409 15.572H41.3529L44.6849 20.808L47.8209 15.572H51.1529L46.1689 23.188ZM57.2576 18.176V26.716C57.2576 27.2947 57.3883 27.7147 57.6496 27.976C57.9296 28.2187 58.3963 28.34 59.0496 28.34H61.0096V31H58.4896C57.0523 31 55.9509 30.664 55.1856 29.992C54.4203 29.32 54.0376 28.228 54.0376 26.716V18.176H52.2176V15.572H54.0376V11.736H57.2576V15.572H61.0096V18.176H57.2576ZM67.4516 27.164L64.0636 34.892H61.9916L63.9796 27.164H67.4516ZM5.292 52.28V73H2.1V52.28H5.292ZM23.6228 64.908C23.6228 65.4867 23.5855 66.0093 23.5108 66.476H11.7228C11.8161 67.708 12.2735 68.6973 13.0948 69.444C13.9161 70.1907 14.9241 70.564 16.1188 70.564C17.8361 70.564 19.0495 69.8453 19.7588 68.408H23.2028C22.7361 69.8267 21.8868 70.9933 20.6548 71.908C19.4415 72.804 17.9295 73.252 16.1188 73.252C14.6441 73.252 13.3188 72.9253 12.1428 72.272C10.9855 71.6 10.0708 70.6667 9.39881 69.472C8.74548 68.2587 8.41881 66.8587 8.41881 65.272C8.41881 63.6853 8.73615 62.2947 9.37081 61.1C10.0241 59.8867 10.9295 58.9533 12.0868 58.3C13.2628 57.6467 14.6068 57.32 16.1188 57.32C17.5748 57.32 18.8721 57.6373 20.0108 58.272C21.1495 58.9067 22.0361 59.8027 22.6708 60.96C23.3055 62.0987 23.6228 63.4147 23.6228 64.908ZM20.2908 63.9C20.2721 62.724 19.8521 61.7813 19.0308 61.072C18.2095 60.3627 17.1921 60.008 15.9788 60.008C14.8775 60.008 13.9348 60.3627 13.1508 61.072C12.3668 61.7627 11.9001 62.7053 11.7508 63.9H20.2908ZM30.4881 60.176V68.716C30.4881 69.2947 30.6187 69.7147 30.8801 69.976C31.1601 70.2187 31.6267 70.34 32.2801 70.34H34.2401V73H31.7201C30.2827 73 29.1814 72.664 28.4161 71.992C27.6507 71.32 27.2681 70.228 27.2681 68.716V60.176H25.4481V57.572H27.2681V53.736H30.4881V57.572H34.2401V60.176H30.4881ZM37.686 53.54H41.158L38.218 60.204H35.978L37.686 53.54ZM49.5633 73.252C48.3499 73.252 47.2579 73.0373 46.2873 72.608C45.3353 72.16 44.5793 71.5627 44.0193 70.816C43.4593 70.0507 43.1606 69.2013 43.1233 68.268H46.4273C46.4833 68.9213 46.7913 69.472 47.3513 69.92C47.9299 70.3493 48.6486 70.564 49.5073 70.564C50.4033 70.564 51.0939 70.396 51.5793 70.06C52.0833 69.7053 52.3353 69.2573 52.3353 68.716C52.3353 68.1373 52.0553 67.708 51.4953 67.428C50.9539 67.148 50.0859 66.84 48.8913 66.504C47.7339 66.1867 46.7913 65.8787 46.0633 65.58C45.3353 65.2813 44.7006 64.824 44.1593 64.208C43.6366 63.592 43.3753 62.78 43.3753 61.772C43.3753 60.9507 43.6179 60.204 44.1033 59.532C44.5886 58.8413 45.2793 58.3 46.1753 57.908C47.0899 57.516 48.1353 57.32 49.3113 57.32C51.0659 57.32 52.4753 57.768 53.5393 58.664C54.6219 59.5413 55.2006 60.7453 55.2753 62.276H52.0833C52.0273 61.5853 51.7473 61.0347 51.2433 60.624C50.7393 60.2133 50.0579 60.008 49.1993 60.008C48.3593 60.008 47.7153 60.1667 47.2673 60.484C46.8193 60.8013 46.5953 61.2213 46.5953 61.744C46.5953 62.1547 46.7446 62.5 47.0433 62.78C47.3419 63.06 47.7059 63.284 48.1353 63.452C48.5646 63.6013 49.1993 63.7973 50.0393 64.04C51.1593 64.3387 52.0739 64.6467 52.7833 64.964C53.5113 65.2627 54.1366 65.7107 54.6593 66.308C55.1819 66.9053 55.4526 67.6987 55.4713 68.688C55.4713 69.5653 55.2286 70.3493 54.7433 71.04C54.2579 71.7307 53.5673 72.272 52.6713 72.664C51.7939 73.056 50.7579 73.252 49.5633 73.252ZM65.1298 65.272C65.1298 63.6853 65.4471 62.2947 66.0818 61.1C66.7351 59.8867 67.6311 58.9533 68.7698 58.3C69.9084 57.6467 71.2151 57.32 72.6898 57.32C74.5564 57.32 76.0964 57.768 77.3098 58.664C78.5418 59.5413 79.3724 60.8013 79.8018 62.444H76.3578C76.0778 61.6787 75.6298 61.0813 75.0138 60.652C74.3978 60.2227 73.6231 60.008 72.6898 60.008C71.3831 60.008 70.3378 60.4747 69.5538 61.408C68.7884 62.3227 68.4058 63.6107 68.4058 65.272C68.4058 66.9333 68.7884 68.2307 69.5538 69.164C70.3378 70.0973 71.3831 70.564 72.6898 70.564C74.5378 70.564 75.7604 69.752 76.3578 68.128H79.8018C79.3538 69.696 78.5138 70.9467 77.2818 71.88C76.0498 72.7947 74.5191 73.252 72.6898 73.252C71.2151 73.252 69.9084 72.9253 68.7698 72.272C67.6311 71.6 66.7351 70.6667 66.0818 69.472C65.4471 68.2587 65.1298 66.8587 65.1298 65.272ZM90.9628 57.32C92.1388 57.32 93.1841 57.572 94.0988 58.076C95.0321 58.58 95.7601 59.3267 96.2828 60.316C96.8241 61.3053 97.0948 62.5 97.0948 63.9V73H93.9308V64.376C93.9308 62.9947 93.5855 61.94 92.8948 61.212C92.2041 60.4653 91.2615 60.092 90.0668 60.092C88.8721 60.092 87.9201 60.4653 87.2108 61.212C86.5201 61.94 86.1748 62.9947 86.1748 64.376V73H82.9828V52.28H86.1748V59.364C86.7161 58.7107 87.3975 58.2067 88.2188 57.852C89.0588 57.4973 89.9735 57.32 90.9628 57.32ZM107.858 73.252C106.402 73.252 105.086 72.9253 103.91 72.272C102.734 71.6 101.81 70.6667 101.138 69.472C100.466 68.2587 100.13 66.8587 100.13 65.272C100.13 63.704 100.476 62.3133 101.166 61.1C101.857 59.8867 102.8 58.9533 103.994 58.3C105.189 57.6467 106.524 57.32 107.998 57.32C109.473 57.32 110.808 57.6467 112.002 58.3C113.197 58.9533 114.14 59.8867 114.83 61.1C115.521 62.3133 115.866 63.704 115.866 65.272C115.866 66.84 115.512 68.2307 114.802 69.444C114.093 70.6573 113.122 71.6 111.89 72.272C110.677 72.9253 109.333 73.252 107.858 73.252ZM107.858 70.48C108.68 70.48 109.445 70.284 110.154 69.892C110.882 69.5 111.47 68.912 111.918 68.128C112.366 67.344 112.59 66.392 112.59 65.272C112.59 64.152 112.376 63.2093 111.946 62.444C111.517 61.66 110.948 61.072 110.238 60.68C109.529 60.288 108.764 60.092 107.942 60.092C107.121 60.092 106.356 60.288 105.646 60.68C104.956 61.072 104.405 61.66 103.994 62.444C103.584 63.2093 103.378 64.152 103.378 65.272C103.378 66.9333 103.798 68.2213 104.638 69.136C105.497 70.032 106.57 70.48 107.858 70.48ZM125.714 73.252C124.258 73.252 122.942 72.9253 121.766 72.272C120.59 71.6 119.666 70.6667 118.994 69.472C118.322 68.2587 117.986 66.8587 117.986 65.272C117.986 63.704 118.331 62.3133 119.022 61.1C119.713 59.8867 120.655 58.9533 121.85 58.3C123.045 57.6467 124.379 57.32 125.854 57.32C127.329 57.32 128.663 57.6467 129.858 58.3C131.053 58.9533 131.995 59.8867 132.686 61.1C133.377 62.3133 133.722 63.704 133.722 65.272C133.722 66.84 133.367 68.2307 132.658 69.444C131.949 70.6573 130.978 71.6 129.746 72.272C128.533 72.9253 127.189 73.252 125.714 73.252ZM125.714 70.48C126.535 70.48 127.301 70.284 128.01 69.892C128.738 69.5 129.326 68.912 129.774 68.128C130.222 67.344 130.446 66.392 130.446 65.272C130.446 64.152 130.231 63.2093 129.802 62.444C129.373 61.66 128.803 61.072 128.094 60.68C127.385 60.288 126.619 60.092 125.798 60.092C124.977 60.092 124.211 60.288 123.502 60.68C122.811 61.072 122.261 61.66 121.85 62.444C121.439 63.2093 121.234 64.152 121.234 65.272C121.234 66.9333 121.654 68.2213 122.494 69.136C123.353 70.032 124.426 70.48 125.714 70.48ZM142.477 73.252C141.264 73.252 140.172 73.0373 139.201 72.608C138.249 72.16 137.493 71.5627 136.933 70.816C136.373 70.0507 136.075 69.2013 136.037 68.268H139.341C139.397 68.9213 139.705 69.472 140.265 69.92C140.844 70.3493 141.563 70.564 142.421 70.564C143.317 70.564 144.008 70.396 144.493 70.06C144.997 69.7053 145.249 69.2573 145.249 68.716C145.249 68.1373 144.969 67.708 144.409 67.428C143.868 67.148 143 66.84 141.805 66.504C140.648 66.1867 139.705 65.8787 138.977 65.58C138.249 65.2813 137.615 64.824 137.073 64.208C136.551 63.592 136.289 62.78 136.289 61.772C136.289 60.9507 136.532 60.204 137.017 59.532C137.503 58.8413 138.193 58.3 139.089 57.908C140.004 57.516 141.049 57.32 142.225 57.32C143.98 57.32 145.389 57.768 146.453 58.664C147.536 59.5413 148.115 60.7453 148.189 62.276H144.997C144.941 61.5853 144.661 61.0347 144.157 60.624C143.653 60.2133 142.972 60.008 142.113 60.008C141.273 60.008 140.629 60.1667 140.181 60.484C139.733 60.8013 139.509 61.2213 139.509 61.744C139.509 62.1547 139.659 62.5 139.957 62.78C140.256 63.06 140.62 63.284 141.049 63.452C141.479 63.6013 142.113 63.7973 142.953 64.04C144.073 64.3387 144.988 64.6467 145.697 64.964C146.425 65.2627 147.051 65.7107 147.573 66.308C148.096 66.9053 148.367 67.6987 148.385 68.688C148.385 69.5653 148.143 70.3493 147.657 71.04C147.172 71.7307 146.481 72.272 145.585 72.664C144.708 73.056 143.672 73.252 142.477 73.252ZM165.974 64.908C165.974 65.4867 165.937 66.0093 165.862 66.476H154.074C154.168 67.708 154.625 68.6973 155.446 69.444C156.268 70.1907 157.276 70.564 158.47 70.564C160.188 70.564 161.401 69.8453 162.11 68.408H165.554C165.088 69.8267 164.238 70.9933 163.006 71.908C161.793 72.804 160.281 73.252 158.47 73.252C156.996 73.252 155.67 72.9253 154.494 72.272C153.337 71.6 152.422 70.6667 151.75 69.472C151.097 68.2587 150.77 66.8587 150.77 65.272C150.77 63.6853 151.088 62.2947 151.722 61.1C152.376 59.8867 153.281 58.9533 154.438 58.3C155.614 57.6467 156.958 57.32 158.47 57.32C159.926 57.32 161.224 57.6373 162.362 58.272C163.501 58.9067 164.388 59.8027 165.022 60.96C165.657 62.0987 165.974 63.4147 165.974 64.908ZM162.642 63.9C162.624 62.724 162.204 61.7813 161.382 61.072C160.561 60.3627 159.544 60.008 158.33 60.008C157.229 60.008 156.286 60.3627 155.502 61.072C154.718 61.7627 154.252 62.7053 154.102 63.9H162.642ZM175.325 65.216C175.325 63.6667 175.642 62.2947 176.277 61.1C176.93 59.9053 177.808 58.9813 178.909 58.328C180.029 57.656 181.261 57.32 182.605 57.32C183.818 57.32 184.873 57.5627 185.769 58.048C186.684 58.5147 187.412 59.1027 187.953 59.812V57.572H191.173V73H187.953V70.704C187.412 71.432 186.674 72.0387 185.741 72.524C184.808 73.0093 183.744 73.252 182.549 73.252C181.224 73.252 180.01 72.916 178.909 72.244C177.808 71.5533 176.93 70.6013 176.277 69.388C175.642 68.156 175.325 66.7653 175.325 65.216ZM187.953 65.272C187.953 64.208 187.729 63.284 187.281 62.5C186.852 61.716 186.282 61.1187 185.573 60.708C184.864 60.2973 184.098 60.092 183.277 60.092C182.456 60.092 181.69 60.2973 180.981 60.708C180.272 61.1 179.693 61.688 179.245 62.472C178.816 63.2373 178.601 64.152 178.601 65.216C178.601 66.28 178.816 67.2133 179.245 68.016C179.693 68.8187 180.272 69.4347 180.981 69.864C181.709 70.2747 182.474 70.48 183.277 70.48C184.098 70.48 184.864 70.2747 185.573 69.864C186.282 69.4533 186.852 68.856 187.281 68.072C187.729 67.2693 187.953 66.336 187.953 65.272ZM210.619 57.32C211.795 57.32 212.84 57.572 213.755 58.076C214.688 58.58 215.416 59.3267 215.939 60.316C216.48 61.3053 216.751 62.5 216.751 63.9V73H213.587V64.376C213.587 62.9947 213.242 61.94 212.551 61.212C211.86 60.4653 210.918 60.092 209.723 60.092C208.528 60.092 207.576 60.4653 206.867 61.212C206.176 61.94 205.831 62.9947 205.831 64.376V73H202.639V52.28H205.831V59.364C206.372 58.7107 207.054 58.2067 207.875 57.852C208.715 57.4973 209.63 57.32 210.619 57.32ZM227.515 73.252C226.059 73.252 224.743 72.9253 223.567 72.272C222.391 71.6 221.467 70.6667 220.795 69.472C220.123 68.2587 219.787 66.8587 219.787 65.272C219.787 63.704 220.132 62.3133 220.823 61.1C221.513 59.8867 222.456 58.9533 223.651 58.3C224.845 57.6467 226.18 57.32 227.655 57.32C229.129 57.32 230.464 57.6467 231.659 58.3C232.853 58.9533 233.796 59.8867 234.487 61.1C235.177 62.3133 235.523 63.704 235.523 65.272C235.523 66.84 235.168 68.2307 234.459 69.444C233.749 70.6573 232.779 71.6 231.547 72.272C230.333 72.9253 228.989 73.252 227.515 73.252ZM227.515 70.48C228.336 70.48 229.101 70.284 229.811 69.892C230.539 69.5 231.127 68.912 231.575 68.128C232.023 67.344 232.247 66.392 232.247 65.272C232.247 64.152 232.032 63.2093 231.603 62.444C231.173 61.66 230.604 61.072 229.895 60.68C229.185 60.288 228.42 60.092 227.599 60.092C226.777 60.092 226.012 60.288 225.303 60.68C224.612 61.072 224.061 61.66 223.651 62.444C223.24 63.2093 223.035 64.152 223.035 65.272C223.035 66.9333 223.455 68.2213 224.295 69.136C225.153 70.032 226.227 70.48 227.515 70.48ZM242.402 60.176V68.716C242.402 69.2947 242.533 69.7147 242.794 69.976C243.074 70.2187 243.541 70.34 244.194 70.34H246.154V73H243.634C242.197 73 241.095 72.664 240.33 71.992C239.565 71.32 239.182 70.228 239.182 68.716V60.176H237.362V57.572H239.182V53.736H242.402V57.572H246.154V60.176H242.402ZM263.236 64.908C263.236 65.4867 263.199 66.0093 263.124 66.476H251.336C251.429 67.708 251.887 68.6973 252.708 69.444C253.529 70.1907 254.537 70.564 255.732 70.564C257.449 70.564 258.663 69.8453 259.372 68.408H262.816C262.349 69.8267 261.5 70.9933 260.268 71.908C259.055 72.804 257.543 73.252 255.732 73.252C254.257 73.252 252.932 72.9253 251.756 72.272C250.599 71.6 249.684 70.6667 249.012 69.472C248.359 68.2587 248.032 66.8587 248.032 65.272C248.032 63.6853 248.349 62.2947 248.984 61.1C249.637 59.8867 250.543 58.9533 251.7 58.3C252.876 57.6467 254.22 57.32 255.732 57.32C257.188 57.32 258.485 57.6373 259.624 58.272C260.763 58.9067 261.649 59.8027 262.284 60.96C262.919 62.0987 263.236 63.4147 263.236 64.908ZM259.904 63.9C259.885 62.724 259.465 61.7813 258.644 61.072C257.823 60.3627 256.805 60.008 255.592 60.008C254.491 60.008 253.548 60.3627 252.764 61.072C251.98 61.7627 251.513 62.7053 251.364 63.9H259.904ZM269.569 52.28V73H266.377V52.28H269.569Z" fill="#171717"/>
<defs>
<filter id="filter0_d_31_28" x="196.5" y="66.8845" width="81.9944" height="19.3154" filterUnits="userSpaceOnUse" color-interpolation-filters="sRGB">
<feFlood flood-opacity="0" result="BackgroundImageFix"/>
<feColorMatrix in="SourceAlpha" type="matrix" values="0 0 0 0 0 0 0 0 0 0 0 0 0 0 0 0 0 0 127 0" result="hardAlpha"/>
<feOffset/>
<feGaussianBlur stdDeviation="2"/>
<feComposite in2="hardAlpha" operator="out"/>
<feColorMatrix type="matrix" values="0 0 0 0 1 0 0 0 0 0.891833 0 0 0 0 0.508333 0 0 0 0.6 0"/>
<feBlend mode="normal" in2="BackgroundImageFix" result="effect1_dropShadow_31_28"/>
<feBlend mode="normal" in="SourceGraphic" in2="effect1_dropShadow_31_28" result="shape"/>
</filter>
</defs>
</svg>
