<svg width="390" height="499" viewBox="0 0 390 499" fill="none" xmlns="http://www.w3.org/2000/svg">
<path d="M210.351 26.2182L239.311 2L272.829 32.8863L300.691 58.5612L330.599 86.1204L354.522 108.166L383.805 135.15L410.593 159.835L438.255 185.325L464.696 209.691L491.232 234.143L521.272 261.824L548.429 286.849L572.352 308.895L598.479 332.971L626.409 358.708L656.085 386.053L682.527 410.419L714.635 440.007L765 486.418L743.595 487.228L738.558 487.419L727.855 487.824L721.245 488.074L714.635 488.324L707.395 488.598L700.155 488.872L693.229 489.134L686.304 489.397L678.435 489.694L670.565 489.992L666.158 490.159L656.085 490.54L647.901 490.85L639.716 491.16L631.217 491.482L622.718 491.803L617.052 492.018L606.349 492.423L598.479 492.721L590.61 493.019L581.481 493.364L572.352 493.71L563.224 494.055L554.095 494.401L545.281 494.734L536.467 495.068L524.191 495.533L511.914 495.997L502.471 496.355L493.027 496.712L482.954 497.094L464.696 497.785L459.03 497.999L432.589 499H378.446H363.966H330.599H311.082H283.381H266.383H235.534H217.277H189.576H171.318H144.247H126.619H100.177H82.5492H57.3665H35.9612H14.5559H-7.47891H-29.5138H-46.5121H-67.9174H-89.0078H-110.098H-129.3H-148.502H-168.019H-187.535H-206.107H-224.68H-244.196H-263.713H-281.341H-298.969H-326.984H-355L-298.969 452.143L-263.713 422.66L-228.457 393.177L-193.831 364.22L-159.834 335.79L-126.467 307.887L-93.7296 280.51L-60.9921 253.132L-29.5138 226.808L1.9646 200.484L33.443 174.16L63.6622 148.889L93.2519 124.144L123.471 98.8729L153.061 74.1282L180.762 50.9629L210.351 26.2182Z" fill="url(#paint0_linear_36_41)" fill-opacity="0.2"/>
<path d="M239.311 2L210.351 26.2182M239.311 2L247.507 23.0753M239.311 2L272.829 32.8863M432.589 499H378.446M432.589 499L413.75 450.558M432.589 499L459.03 497.999M210.351 26.2182L378.446 499M210.351 26.2182L180.762 50.9629M378.446 499H363.966M180.762 50.9629L330.599 499M180.762 50.9629L153.061 74.1282M330.599 499H363.966M330.599 499H311.082M153.061 74.1282L283.381 499M153.061 74.1282L123.471 98.8729M283.381 499H311.082M283.381 499H266.383M123.471 98.8729L235.534 499M123.471 98.8729L93.2518 124.144M235.534 499H266.383M235.534 499H217.277M93.2518 124.144L189.576 499M93.2518 124.144L63.6622 148.889M189.576 499H217.277M189.576 499H171.318M63.6622 148.889L144.247 499M63.6622 148.889L33.443 174.16M144.247 499H171.318M144.247 499H126.619M33.443 174.16L100.177 499M33.443 174.16L1.96459 200.484M100.177 499H126.619M100.177 499H82.5492M1.96459 200.484L57.3665 499M1.96459 200.484L-29.5138 226.808M57.3665 499H82.5492M57.3665 499H35.9612M-29.5138 226.808L14.5559 499M-29.5138 226.808L-60.9921 253.132M14.5559 499H35.9612M14.5559 499H-7.4789M-60.9921 253.132L-29.5138 499M-60.9921 253.132L-93.7296 280.51M-29.5138 499H-7.4789M-29.5138 499H-46.5121M-93.7296 280.51L-67.9174 499M-93.7296 280.51L-126.467 307.887M-67.9174 499H-46.5121M-67.9174 499H-89.0079M-126.467 307.887L-110.098 499M-126.467 307.887L-159.834 335.79M-110.098 499H-89.0079M-110.098 499H-129.3M-159.834 335.79L-148.502 499M-159.834 335.79L-193.831 364.22M-148.502 499H-129.3M-148.502 499H-168.019M-193.831 364.22L-187.535 499M-193.831 364.22L-228.457 393.177M-187.535 499H-168.019M-187.535 499H-206.107M-228.457 393.177L-224.68 499M-228.457 393.177L-263.713 422.66M-224.68 499H-206.107M-224.68 499H-244.196M-263.713 422.66V499M-263.713 422.66L-298.969 452.143M-263.713 499H-244.196M-263.713 499H-281.341M-298.969 452.143L-355 499H-326.984M-298.969 452.143V499M-298.969 499H-281.341M-298.969 499H-326.984M413.75 450.558L363.966 499M413.75 450.558L400.049 415.328M413.75 450.558L464.696 497.785M400.049 415.328L311.082 499M400.049 415.328L386.838 381.356M400.049 415.328L493.027 496.712M386.838 381.356L266.383 499M386.838 381.356L374.668 350.062M386.838 381.356L511.914 495.997M374.668 350.062L217.277 499M374.668 350.062L362.862 319.703M374.668 350.062L536.467 495.068M362.862 319.703L171.318 499M362.862 319.703L351.119 289.505M362.862 319.703L554.095 494.401M351.119 289.505L126.619 499M351.119 289.505L340.354 261.824M351.119 289.505L572.352 493.71M340.354 261.824L82.5492 499M340.354 261.824L329.589 234.143M340.354 261.824L590.61 493.019M329.589 234.143L35.9612 499M329.589 234.143L319.313 207.72M329.589 234.143L606.349 492.423M319.313 207.72L-7.4789 499M319.313 207.72L309.283 181.927M319.313 207.72L622.718 491.803M309.283 181.927L-46.5121 499M309.283 181.927L300.691 159.835L299.741 157.391M309.283 181.927L639.716 491.16M299.741 157.391L-89.0079 499M299.741 157.391L290.444 133.485M299.741 157.391L656.085 490.54M290.444 133.485L-129.3 499M290.444 133.485L281.637 110.837M290.444 133.485L670.565 489.992M281.637 110.837L-168.019 499M281.637 110.837L272.829 88.1886M281.637 110.837L686.304 489.397M272.829 88.1886L-206.107 499M272.829 88.1886L264.266 66.1696M272.829 88.1886L700.155 488.872M264.266 66.1696L-244.196 499M264.266 66.1696L255.703 44.1506M264.266 66.1696L714.635 488.324M255.703 44.1506L-281.341 499M255.703 44.1506L247.507 23.0753M255.703 44.1506L727.856 487.824M247.507 23.0753L-326.984 499M247.507 23.0753L743.595 487.228M743.595 487.228L765 486.418L714.635 440.007M743.595 487.228L738.558 487.419M727.856 487.824L721.245 488.074M727.856 487.824L738.558 487.419M714.635 488.324L707.395 488.598M714.635 488.324L721.245 488.074M700.155 488.872L693.229 489.134M700.155 488.872L707.395 488.598M686.304 489.397L678.435 489.694M686.304 489.397L693.229 489.134M670.565 489.992L666.158 490.159M670.565 489.992L678.435 489.694M656.085 490.54L647.901 490.85M656.085 490.54L666.158 490.159M639.716 491.16L631.217 491.482M639.716 491.16L647.901 490.85M622.718 491.803L617.052 492.018M622.718 491.803L631.217 491.482M606.349 492.423L598.479 492.721M606.349 492.423L617.052 492.018M590.61 493.019L581.481 493.364M590.61 493.019L598.479 492.721M572.352 493.71L563.224 494.055M572.352 493.71L581.481 493.364M554.095 494.401L545.281 494.734M554.095 494.401L563.224 494.055M536.467 495.068L524.191 495.533M536.467 495.068L545.281 494.734M511.914 495.997L502.47 496.355M511.914 495.997L524.191 495.533M493.027 496.712L482.954 497.094M493.027 496.712L502.47 496.355M464.696 497.785L459.03 497.999M464.696 497.785L482.954 497.094M272.829 32.8863L459.03 497.999M272.829 32.8863L300.691 58.5612M300.691 58.5612L482.954 497.094M300.691 58.5612L330.599 86.1204M330.599 86.1204L502.47 496.355M330.599 86.1204L354.522 108.166M354.522 108.166L524.191 495.533M354.522 108.166L383.805 135.15M383.805 135.15L545.281 494.734M383.805 135.15L410.593 159.835M410.593 159.835L563.224 494.055M410.593 159.835L438.255 185.325M438.255 185.325L581.481 493.364M438.255 185.325L464.696 209.691M464.696 209.691L598.479 492.721M464.696 209.691L491.232 234.143M491.232 234.143L617.052 492.018M491.232 234.143L521.272 261.824M521.272 261.824L631.217 491.482M521.272 261.824L548.429 286.849M548.429 286.849L647.901 490.85M548.429 286.849L572.352 308.895M572.352 308.895L666.158 490.159M572.352 308.895L598.479 332.971M598.479 332.971L678.435 489.694M598.479 332.971L626.409 358.708M626.409 358.708L693.229 489.134M626.409 358.708L656.085 386.053M656.085 386.053L707.395 488.598M656.085 386.053L682.527 410.419M682.527 410.419L721.245 488.074M682.527 410.419L714.635 440.007M714.635 440.007L738.558 487.419" stroke="url(#paint1_linear_36_41)" stroke-width="2"/>
<defs>
<linearGradient id="paint0_linear_36_41" x1="240.515" y1="2.00002" x2="79.0181" y2="499.039" gradientUnits="userSpaceOnUse">
<stop stop-color="#FFE382"/>
<stop offset="0.46875" stop-color="#CE67FF"/>
<stop offset="1" stop-color="#FF67D4"/>
</linearGradient>
<linearGradient id="paint1_linear_36_41" x1="219.795" y1="-42.6671" x2="-73.8858" y2="499.806" gradientUnits="userSpaceOnUse">
<stop stop-color="#FF67D4"/>
<stop offset="1" stop-color="#B655E4"/>
</linearGradient>
</defs>
</svg>
