<svg width="292" height="112" viewBox="0 0 292 112" fill="none" xmlns="http://www.w3.org/2000/svg">
<g filter="url(#filter0_d_36_42)">
<path d="M105.969 105.115C129.056 98.4082 164.501 88.1733 200.978 91.1734C229.765 93.541 226.025 103.869 215.951 105.966" stroke="#FFE382" stroke-width="3" stroke-linecap="round"/>
</g>
<path d="M31.132 71.056L25.3 91H19.864L16.228 77.068L12.592 91H7.12L1.252 71.056H6.364L9.892 86.248L13.708 71.056H19.036L22.78 86.212L26.308 71.056H31.132ZM52.399 80.596C52.399 81.316 52.351 81.964 52.255 82.54H37.675C37.795 83.98 38.299 85.108 39.187 85.924C40.075 86.74 41.167 87.148 42.463 87.148C44.335 87.148 45.667 86.344 46.459 84.736H51.895C51.319 86.656 50.215 88.24 48.583 89.488C46.951 90.712 44.947 91.324 42.571 91.324C40.651 91.324 38.923 90.904 37.387 90.064C35.875 89.2 34.687 87.988 33.823 86.428C32.983 84.868 32.563 83.068 32.563 81.028C32.563 78.964 32.983 77.152 33.823 75.592C34.663 74.032 35.839 72.832 37.351 71.992C38.863 71.152 40.603 70.732 42.571 70.732C44.467 70.732 46.159 71.14 47.647 71.956C49.159 72.772 50.323 73.936 51.139 75.448C51.979 76.936 52.399 78.652 52.399 80.596ZM47.179 79.156C47.155 77.86 46.687 76.828 45.775 76.06C44.863 75.268 43.747 74.872 42.427 74.872C41.179 74.872 40.123 75.256 39.259 76.024C38.419 76.768 37.903 77.812 37.711 79.156H47.179ZM57.0858 65.872H62.3778L58.4898 74.944H55.0338L57.0858 65.872ZM71.0318 74.152C71.6798 73.096 72.5198 72.268 73.5518 71.668C74.6078 71.068 75.8078 70.768 77.1518 70.768V76.06H75.8198C74.2358 76.06 73.0358 76.432 72.2198 77.176C71.4278 77.92 71.0318 79.216 71.0318 81.064V91H65.9918V71.056H71.0318V74.152ZM99.0865 80.596C99.0865 81.316 99.0385 81.964 98.9425 82.54H84.3625C84.4825 83.98 84.9865 85.108 85.8745 85.924C86.7625 86.74 87.8545 87.148 89.1505 87.148C91.0225 87.148 92.3545 86.344 93.1465 84.736H98.5825C98.0065 86.656 96.9025 88.24 95.2705 89.488C93.6385 90.712 91.6345 91.324 89.2585 91.324C87.3385 91.324 85.6105 90.904 84.0745 90.064C82.5625 89.2 81.3745 87.988 80.5105 86.428C79.6705 84.868 79.2505 83.068 79.2505 81.028C79.2505 78.964 79.6705 77.152 80.5105 75.592C81.3505 74.032 82.5265 72.832 84.0385 71.992C85.5505 71.152 87.2905 70.732 89.2585 70.732C91.1545 70.732 92.8465 71.14 94.3345 71.956C95.8465 72.772 97.0105 73.936 97.8265 75.448C98.6665 76.936 99.0865 78.652 99.0865 80.596ZM93.8665 79.156C93.8425 77.86 93.3745 76.828 92.4625 76.06C91.5505 75.268 90.4345 74.872 89.1145 74.872C87.8665 74.872 86.8105 75.256 85.9465 76.024C85.1065 76.768 84.5905 77.812 84.3985 79.156H93.8665ZM119.155 70.732C120.643 70.732 121.951 71.032 123.079 71.632C124.207 72.208 125.095 72.964 125.743 73.9V71.056H130.819V91.144C130.819 92.992 130.447 94.636 129.703 96.076C128.959 97.54 127.843 98.692 126.355 99.532C124.867 100.396 123.067 100.828 120.955 100.828C118.123 100.828 115.795 100.168 113.971 98.848C112.171 97.528 111.151 95.728 110.911 93.448H115.915C116.179 94.36 116.743 95.08 117.607 95.608C118.495 96.16 119.563 96.436 120.811 96.436C122.275 96.436 123.463 95.992 124.375 95.104C125.287 94.24 125.743 92.92 125.743 91.144V88.048C125.095 88.984 124.195 89.764 123.043 90.388C121.915 91.012 120.619 91.324 119.155 91.324C117.475 91.324 115.939 90.892 114.547 90.028C113.155 89.164 112.051 87.952 111.235 86.392C110.443 84.808 110.047 82.996 110.047 80.956C110.047 78.94 110.443 77.152 111.235 75.592C112.051 74.032 113.143 72.832 114.511 71.992C115.903 71.152 117.451 70.732 119.155 70.732ZM125.743 81.028C125.743 79.804 125.503 78.76 125.023 77.896C124.543 77.008 123.895 76.336 123.079 75.88C122.263 75.4 121.387 75.16 120.451 75.16C119.515 75.16 118.651 75.388 117.859 75.844C117.067 76.3 116.419 76.972 115.915 77.86C115.435 78.724 115.195 79.756 115.195 80.956C115.195 82.156 115.435 83.212 115.915 84.124C116.419 85.012 117.067 85.696 117.859 86.176C118.675 86.656 119.539 86.896 120.451 86.896C121.387 86.896 122.263 86.668 123.079 86.212C123.895 85.732 124.543 85.06 125.023 84.196C125.503 83.308 125.743 82.252 125.743 81.028ZM144.598 91.324C142.678 91.324 140.95 90.904 139.414 90.064C137.878 89.2 136.666 87.988 135.778 86.428C134.914 84.868 134.482 83.068 134.482 81.028C134.482 78.988 134.926 77.188 135.814 75.628C136.726 74.068 137.962 72.868 139.522 72.028C141.082 71.164 142.822 70.732 144.742 70.732C146.662 70.732 148.402 71.164 149.962 72.028C151.522 72.868 152.746 74.068 153.634 75.628C154.546 77.188 155.002 78.988 155.002 81.028C155.002 83.068 154.534 84.868 153.598 86.428C152.686 87.988 151.438 89.2 149.854 90.064C148.294 90.904 146.542 91.324 144.598 91.324ZM144.598 86.932C145.51 86.932 146.362 86.716 147.154 86.284C147.97 85.828 148.618 85.156 149.098 84.268C149.578 83.38 149.818 82.3 149.818 81.028C149.818 79.132 149.314 77.68 148.306 76.672C147.322 75.64 146.11 75.124 144.67 75.124C143.23 75.124 142.018 75.64 141.034 76.672C140.074 77.68 139.594 79.132 139.594 81.028C139.594 82.924 140.062 84.388 140.998 85.42C141.958 86.428 143.158 86.932 144.598 86.932ZM161.255 68.68C160.367 68.68 159.623 68.404 159.023 67.852C158.447 67.276 158.159 66.568 158.159 65.728C158.159 64.888 158.447 64.192 159.023 63.64C159.623 63.064 160.367 62.776 161.255 62.776C162.143 62.776 162.875 63.064 163.451 63.64C164.051 64.192 164.351 64.888 164.351 65.728C164.351 66.568 164.051 67.276 163.451 67.852C162.875 68.404 162.143 68.68 161.255 68.68ZM163.739 71.056V91H158.699V71.056H163.739ZM179.77 70.768C182.146 70.768 184.066 71.524 185.53 73.036C186.994 74.524 187.726 76.612 187.726 79.3V91H182.686V79.984C182.686 78.4 182.29 77.188 181.498 76.348C180.706 75.484 179.626 75.052 178.258 75.052C176.866 75.052 175.762 75.484 174.946 76.348C174.154 77.188 173.758 78.4 173.758 79.984V91H168.718V71.056H173.758V73.54C174.43 72.676 175.282 72.004 176.314 71.524C177.37 71.02 178.522 70.768 179.77 70.768ZM200.331 70.732C201.819 70.732 203.127 71.032 204.255 71.632C205.383 72.208 206.271 72.964 206.919 73.9V71.056H211.995V91.144C211.995 92.992 211.623 94.636 210.879 96.076C210.135 97.54 209.019 98.692 207.531 99.532C206.043 100.396 204.243 100.828 202.131 100.828C199.299 100.828 196.971 100.168 195.147 98.848C193.347 97.528 192.327 95.728 192.087 93.448H197.091C197.355 94.36 197.919 95.08 198.783 95.608C199.671 96.16 200.739 96.436 201.987 96.436C203.451 96.436 204.639 95.992 205.551 95.104C206.463 94.24 206.919 92.92 206.919 91.144V88.048C206.271 88.984 205.371 89.764 204.219 90.388C203.091 91.012 201.795 91.324 200.331 91.324C198.651 91.324 197.115 90.892 195.723 90.028C194.331 89.164 193.227 87.952 192.411 86.392C191.619 84.808 191.223 82.996 191.223 80.956C191.223 78.94 191.619 77.152 192.411 75.592C193.227 74.032 194.319 72.832 195.687 71.992C197.079 71.152 198.627 70.732 200.331 70.732ZM206.919 81.028C206.919 79.804 206.679 78.76 206.199 77.896C205.719 77.008 205.071 76.336 204.255 75.88C203.439 75.4 202.563 75.16 201.627 75.16C200.691 75.16 199.827 75.388 199.035 75.844C198.243 76.3 197.595 76.972 197.091 77.86C196.611 78.724 196.371 79.756 196.371 80.956C196.371 82.156 196.611 83.212 197.091 84.124C197.595 85.012 198.243 85.696 199.035 86.176C199.851 86.656 200.715 86.896 201.627 86.896C202.563 86.896 203.439 86.668 204.255 86.212C205.071 85.732 205.719 85.06 206.199 84.196C206.679 83.308 206.919 82.252 206.919 81.028ZM223.434 65.44L222.858 82.828H218.61L217.998 65.44H223.434ZM220.842 91.252C219.93 91.252 219.174 90.976 218.574 90.424C217.998 89.848 217.71 89.14 217.71 88.3C217.71 87.46 217.998 86.764 218.574 86.212C219.174 85.636 219.93 85.348 220.842 85.348C221.73 85.348 222.462 85.636 223.038 86.212C223.614 86.764 223.902 87.46 223.902 88.3C223.902 89.14 223.614 89.848 223.038 90.424C222.462 90.976 221.73 91.252 220.842 91.252Z" fill="#171717"/>
<path d="M20.808 22.648C20.808 23.992 20.484 25.252 19.836 26.428C19.212 27.604 18.216 28.552 16.848 29.272C15.504 29.992 13.8 30.352 11.736 30.352H7.524V40H2.484V14.872H11.736C13.68 14.872 15.336 15.208 16.704 15.88C18.072 16.552 19.092 17.476 19.764 18.652C20.46 19.828 20.808 21.16 20.808 22.648ZM11.52 26.284C12.912 26.284 13.944 25.972 14.616 25.348C15.288 24.7 15.624 23.8 15.624 22.648C15.624 20.2 14.256 18.976 11.52 18.976H7.524V26.284H11.52ZM23.0903 29.956C23.0903 27.94 23.4863 26.152 24.2783 24.592C25.0943 23.032 26.1863 21.832 27.5543 20.992C28.9463 20.152 30.4943 19.732 32.1983 19.732C33.6863 19.732 34.9823 20.032 36.0863 20.632C37.2143 21.232 38.1143 21.988 38.7863 22.9V20.056H43.8623V40H38.7863V37.084C38.1383 38.02 37.2383 38.8 36.0863 39.424C34.9583 40.024 33.6503 40.324 32.1623 40.324C30.4823 40.324 28.9463 39.892 27.5543 39.028C26.1863 38.164 25.0943 36.952 24.2783 35.392C23.4863 33.808 23.0903 31.996 23.0903 29.956ZM38.7863 30.028C38.7863 28.804 38.5463 27.76 38.0663 26.896C37.5863 26.008 36.9383 25.336 36.1223 24.88C35.3063 24.4 34.4303 24.16 33.4943 24.16C32.5583 24.16 31.6943 24.388 30.9023 24.844C30.1103 25.3 29.4623 25.972 28.9583 26.86C28.4783 27.724 28.2383 28.756 28.2383 29.956C28.2383 31.156 28.4783 32.212 28.9583 33.124C29.4623 34.012 30.1103 34.696 30.9023 35.176C31.7183 35.656 32.5823 35.896 33.4943 35.896C34.4303 35.896 35.3063 35.668 36.1223 35.212C36.9383 34.732 37.5863 34.06 38.0663 33.196C38.5463 32.308 38.7863 31.252 38.7863 30.028ZM47.4888 30.028C47.4888 27.964 47.9088 26.164 48.7488 24.628C49.5888 23.068 50.7528 21.868 52.2408 21.028C53.7288 20.164 55.4328 19.732 57.3528 19.732C59.8248 19.732 61.8648 20.356 63.4728 21.604C65.1048 22.828 66.1968 24.556 66.7488 26.788H61.3128C61.0248 25.924 60.5328 25.252 59.8368 24.772C59.1648 24.268 58.3248 24.016 57.3168 24.016C55.8768 24.016 54.7368 24.544 53.8968 25.6C53.0568 26.632 52.6368 28.108 52.6368 30.028C52.6368 31.924 53.0568 33.4 53.8968 34.456C54.7368 35.488 55.8768 36.004 57.3168 36.004C59.3568 36.004 60.6888 35.092 61.3128 33.268H66.7488C66.1968 35.428 65.1048 37.144 63.4728 38.416C61.8408 39.688 59.8008 40.324 57.3528 40.324C55.4328 40.324 53.7288 39.904 52.2408 39.064C50.7528 38.2 49.5888 37 48.7488 35.464C47.9088 33.904 47.4888 32.092 47.4888 30.028ZM82.249 40L75.481 31.504V40H70.441V13.36H75.481V28.516L82.177 20.056H88.729L79.945 30.064L88.801 40H82.249ZM119.123 20.056L106.775 49.432H101.411L105.731 39.496L97.7386 20.056H103.391L108.539 33.988L113.759 20.056H119.123ZM130.695 40.324C128.775 40.324 127.047 39.904 125.511 39.064C123.975 38.2 122.763 36.988 121.875 35.428C121.011 33.868 120.579 32.068 120.579 30.028C120.579 27.988 121.023 26.188 121.911 24.628C122.823 23.068 124.059 21.868 125.619 21.028C127.179 20.164 128.919 19.732 130.839 19.732C132.759 19.732 134.499 20.164 136.059 21.028C137.619 21.868 138.843 23.068 139.731 24.628C140.643 26.188 141.099 27.988 141.099 30.028C141.099 32.068 140.631 33.868 139.695 35.428C138.783 36.988 137.535 38.2 135.951 39.064C134.391 39.904 132.639 40.324 130.695 40.324ZM130.695 35.932C131.607 35.932 132.459 35.716 133.251 35.284C134.067 34.828 134.715 34.156 135.195 33.268C135.675 32.38 135.915 31.3 135.915 30.028C135.915 28.132 135.411 26.68 134.403 25.672C133.419 24.64 132.207 24.124 130.767 24.124C129.327 24.124 128.115 24.64 127.131 25.672C126.171 26.68 125.691 28.132 125.691 30.028C125.691 31.924 126.159 33.388 127.095 34.42C128.055 35.428 129.255 35.932 130.695 35.932ZM163.625 20.056V40H158.549V37.48C157.901 38.344 157.049 39.028 155.993 39.532C154.961 40.012 153.833 40.252 152.609 40.252C151.049 40.252 149.669 39.928 148.469 39.28C147.269 38.608 146.321 37.636 145.625 36.364C144.953 35.068 144.617 33.532 144.617 31.756V20.056H149.657V31.036C149.657 32.62 150.053 33.844 150.845 34.708C151.637 35.548 152.717 35.968 154.085 35.968C155.477 35.968 156.569 35.548 157.361 34.708C158.153 33.844 158.549 32.62 158.549 31.036V20.056H163.625ZM173.637 23.152C174.285 22.096 175.125 21.268 176.157 20.668C177.213 20.068 178.413 19.768 179.757 19.768V25.06H178.425C176.841 25.06 175.641 25.432 174.825 26.176C174.033 26.92 173.637 28.216 173.637 30.064V40H168.597V20.056H173.637V23.152ZM196.77 22.972C197.418 22.012 198.306 21.232 199.434 20.632C200.586 20.032 201.894 19.732 203.358 19.732C205.062 19.732 206.598 20.152 207.966 20.992C209.358 21.832 210.45 23.032 211.242 24.592C212.058 26.128 212.466 27.916 212.466 29.956C212.466 31.996 212.058 33.808 211.242 35.392C210.45 36.952 209.358 38.164 207.966 39.028C206.598 39.892 205.062 40.324 203.358 40.324C201.87 40.324 200.562 40.036 199.434 39.46C198.33 38.86 197.442 38.092 196.77 37.156V40H191.73V13.36H196.77V22.972ZM207.318 29.956C207.318 28.756 207.066 27.724 206.562 26.86C206.082 25.972 205.434 25.3 204.618 24.844C203.826 24.388 202.962 24.16 202.026 24.16C201.114 24.16 200.25 24.4 199.434 24.88C198.642 25.336 197.994 26.008 197.49 26.896C197.01 27.784 196.77 28.828 196.77 30.028C196.77 31.228 197.01 32.272 197.49 33.16C197.994 34.048 198.642 34.732 199.434 35.212C200.25 35.668 201.114 35.896 202.026 35.896C202.962 35.896 203.826 35.656 204.618 35.176C205.434 34.696 206.082 34.012 206.562 33.124C207.066 32.236 207.318 31.18 207.318 29.956ZM214.833 29.956C214.833 27.94 215.229 26.152 216.021 24.592C216.837 23.032 217.929 21.832 219.297 20.992C220.689 20.152 222.237 19.732 223.941 19.732C225.429 19.732 226.725 20.032 227.829 20.632C228.957 21.232 229.857 21.988 230.529 22.9V20.056H235.605V40H230.529V37.084C229.881 38.02 228.981 38.8 227.829 39.424C226.701 40.024 225.393 40.324 223.905 40.324C222.225 40.324 220.689 39.892 219.297 39.028C217.929 38.164 216.837 36.952 216.021 35.392C215.229 33.808 214.833 31.996 214.833 29.956ZM230.529 30.028C230.529 28.804 230.289 27.76 229.809 26.896C229.329 26.008 228.681 25.336 227.865 24.88C227.049 24.4 226.173 24.16 225.237 24.16C224.301 24.16 223.437 24.388 222.645 24.844C221.853 25.3 221.205 25.972 220.701 26.86C220.221 27.724 219.981 28.756 219.981 29.956C219.981 31.156 220.221 32.212 220.701 33.124C221.205 34.012 221.853 34.696 222.645 35.176C223.461 35.656 224.325 35.896 225.237 35.896C226.173 35.896 227.049 35.668 227.865 35.212C228.681 34.732 229.329 34.06 229.809 33.196C230.289 32.308 230.529 31.252 230.529 30.028ZM248.339 19.732C249.827 19.732 251.135 20.032 252.263 20.632C253.391 21.208 254.279 21.964 254.927 22.9V20.056H260.003V40.144C260.003 41.992 259.631 43.636 258.887 45.076C258.143 46.54 257.027 47.692 255.539 48.532C254.051 49.396 252.251 49.828 250.139 49.828C247.307 49.828 244.979 49.168 243.155 47.848C241.355 46.528 240.335 44.728 240.095 42.448H245.099C245.363 43.36 245.927 44.08 246.791 44.608C247.679 45.16 248.747 45.436 249.995 45.436C251.459 45.436 252.647 44.992 253.559 44.104C254.471 43.24 254.927 41.92 254.927 40.144V37.048C254.279 37.984 253.379 38.764 252.227 39.388C251.099 40.012 249.803 40.324 248.339 40.324C246.659 40.324 245.123 39.892 243.731 39.028C242.339 38.164 241.235 36.952 240.419 35.392C239.627 33.808 239.231 31.996 239.231 29.956C239.231 27.94 239.627 26.152 240.419 24.592C241.235 23.032 242.327 21.832 243.695 20.992C245.087 20.152 246.635 19.732 248.339 19.732ZM254.927 30.028C254.927 28.804 254.687 27.76 254.207 26.896C253.727 26.008 253.079 25.336 252.263 24.88C251.447 24.4 250.571 24.16 249.635 24.16C248.699 24.16 247.835 24.388 247.043 24.844C246.251 25.3 245.603 25.972 245.099 26.86C244.619 27.724 244.379 28.756 244.379 29.956C244.379 31.156 244.619 32.212 245.099 33.124C245.603 34.012 246.251 34.696 247.043 35.176C247.859 35.656 248.723 35.896 249.635 35.896C250.571 35.896 251.447 35.668 252.263 35.212C253.079 34.732 253.727 34.06 254.207 33.196C254.687 32.308 254.927 31.252 254.927 30.028ZM272.557 40.324C270.925 40.324 269.461 40.036 268.165 39.46C266.869 38.86 265.837 38.056 265.069 37.048C264.325 36.04 263.917 34.924 263.845 33.7H268.921C269.017 34.468 269.389 35.104 270.037 35.608C270.709 36.112 271.537 36.364 272.521 36.364C273.481 36.364 274.225 36.172 274.753 35.788C275.305 35.404 275.581 34.912 275.581 34.312C275.581 33.664 275.245 33.184 274.573 32.872C273.925 32.536 272.881 32.176 271.441 31.792C269.953 31.432 268.729 31.06 267.769 30.676C266.833 30.292 266.017 29.704 265.321 28.912C264.649 28.12 264.313 27.052 264.313 25.708C264.313 24.604 264.625 23.596 265.249 22.684C265.897 21.772 266.809 21.052 267.985 20.524C269.185 19.996 270.589 19.732 272.197 19.732C274.573 19.732 276.469 20.332 277.885 21.532C279.301 22.708 280.081 24.304 280.225 26.32H275.401C275.329 25.528 274.993 24.904 274.393 24.448C273.817 23.968 273.037 23.728 272.053 23.728C271.141 23.728 270.433 23.896 269.929 24.232C269.449 24.568 269.209 25.036 269.209 25.636C269.209 26.308 269.545 26.824 270.217 27.184C270.889 27.52 271.933 27.868 273.349 28.228C274.789 28.588 275.977 28.96 276.913 29.344C277.849 29.728 278.653 30.328 279.325 31.144C280.021 31.936 280.381 32.992 280.405 34.312C280.405 35.464 280.081 36.496 279.433 37.408C278.809 38.32 277.897 39.04 276.697 39.568C275.521 40.072 274.141 40.324 272.557 40.324ZM290.051 34.708L285.839 44.824H282.599L284.939 34.708H290.051Z" fill="#171717"/>
<defs>
<filter id="filter0_d_36_42" x="100.468" y="85.1361" width="128.387" height="26.3299" filterUnits="userSpaceOnUse" color-interpolation-filters="sRGB">
<feFlood flood-opacity="0" result="BackgroundImageFix"/>
<feColorMatrix in="SourceAlpha" type="matrix" values="0 0 0 0 0 0 0 0 0 0 0 0 0 0 0 0 0 0 127 0" result="hardAlpha"/>
<feOffset/>
<feGaussianBlur stdDeviation="2"/>
<feComposite in2="hardAlpha" operator="out"/>
<feColorMatrix type="matrix" values="0 0 0 0 1 0 0 0 0 0.891833 0 0 0 0 0.508333 0 0 0 0.6 0"/>
<feBlend mode="normal" in2="BackgroundImageFix" result="effect1_dropShadow_36_42"/>
<feBlend mode="normal" in="SourceGraphic" in2="effect1_dropShadow_36_42" result="shape"/>
</filter>
</defs>
</svg>
