<svg width="144" height="52" viewBox="0 0 144 52" fill="none" xmlns="http://www.w3.org/2000/svg">
<g filter="url(#filter0_d_36_32)">
<path d="M6 46C31.9129 38.712 71.6947 27.588 112.754 30.4649C145.156 32.7352 141.039 43.6985 129.725 46" stroke="#FFE382" stroke-width="3" stroke-linecap="round"/>
</g>
<path d="M8.512 31.196C7.20533 31.196 6.02933 30.972 4.984 30.524C3.93867 30.0573 3.11733 29.404 2.52 28.564C1.92267 27.724 1.624 26.744 1.624 25.624H5.04C5.11467 26.464 5.44133 27.1547 6.02 27.696C6.61733 28.2373 7.448 28.508 8.512 28.508C9.61333 28.508 10.472 28.2467 11.088 27.724C11.704 27.1827 12.012 26.492 12.012 25.652C12.012 24.9987 11.816 24.4667 11.424 24.056C11.0507 23.6453 10.5747 23.328 9.996 23.104C9.436 22.88 8.652 22.6373 7.644 22.376C6.37467 22.04 5.33867 21.704 4.536 21.368C3.752 21.0133 3.08 20.472 2.52 19.744C1.96 19.016 1.68 18.0453 1.68 16.832C1.68 15.712 1.96 14.732 2.52 13.892C3.08 13.052 3.864 12.408 4.872 11.96C5.88 11.512 7.04667 11.288 8.372 11.288C10.2573 11.288 11.7973 11.764 12.992 12.716C14.2053 13.6493 14.8773 14.9373 15.008 16.58H11.48C11.424 15.8707 11.088 15.264 10.472 14.76C9.856 14.256 9.044 14.004 8.036 14.004C7.12133 14.004 6.37467 14.2373 5.796 14.704C5.21733 15.1707 4.928 15.8427 4.928 16.72C4.928 17.3173 5.10533 17.812 5.46 18.204C5.83333 18.5773 6.3 18.876 6.86 19.1C7.42 19.324 8.18533 19.5667 9.156 19.828C10.444 20.1827 11.4893 20.5373 12.292 20.892C13.1133 21.2467 13.804 21.7973 14.364 22.544C14.9427 23.272 15.232 24.252 15.232 25.484C15.232 26.4733 14.9613 27.4067 14.42 28.284C13.8973 29.1613 13.1227 29.8707 12.096 30.412C11.088 30.9347 9.89333 31.196 8.512 31.196ZM32.9704 15.572V31H29.7784V29.18C29.2744 29.8147 28.6118 30.3187 27.7904 30.692C26.9878 31.0467 26.1291 31.224 25.2144 31.224C24.0011 31.224 22.9091 30.972 21.9384 30.468C20.9864 29.964 20.2304 29.2173 19.6704 28.228C19.1291 27.2387 18.8584 26.044 18.8584 24.644V15.572H22.0224V24.168C22.0224 25.5493 22.3678 26.6133 23.0584 27.36C23.7491 28.088 24.6918 28.452 25.8864 28.452C27.0811 28.452 28.0238 28.088 28.7144 27.36C29.4238 26.6133 29.7784 25.5493 29.7784 24.168V15.572H32.9704ZM55.858 15.32C57.0714 15.32 58.154 15.572 59.106 16.076C60.0767 16.58 60.8327 17.3267 61.374 18.316C61.934 19.3053 62.214 20.5 62.214 21.9V31H59.05V22.376C59.05 20.9947 58.7047 19.94 58.014 19.212C57.3234 18.4653 56.3807 18.092 55.186 18.092C53.9914 18.092 53.0394 18.4653 52.33 19.212C51.6394 19.94 51.294 20.9947 51.294 22.376V31H48.13V22.376C48.13 20.9947 47.7847 19.94 47.094 19.212C46.4034 18.4653 45.4607 18.092 44.266 18.092C43.0714 18.092 42.1194 18.4653 41.41 19.212C40.7194 19.94 40.374 20.9947 40.374 22.376V31H37.182V15.572H40.374V17.336C40.8967 16.7013 41.5594 16.2067 42.362 15.852C43.1647 15.4973 44.0234 15.32 44.938 15.32C46.17 15.32 47.2714 15.5813 48.242 16.104C49.2127 16.6267 49.9594 17.3827 50.482 18.372C50.9487 17.4387 51.6767 16.7013 52.666 16.16C53.6554 15.6 54.7194 15.32 55.858 15.32ZM84.9518 15.32C86.1651 15.32 87.2478 15.572 88.1998 16.076C89.1704 16.58 89.9264 17.3267 90.4678 18.316C91.0278 19.3053 91.3078 20.5 91.3078 21.9V31H88.1438V22.376C88.1438 20.9947 87.7984 19.94 87.1078 19.212C86.4171 18.4653 85.4744 18.092 84.2798 18.092C83.0851 18.092 82.1331 18.4653 81.4238 19.212C80.7331 19.94 80.3878 20.9947 80.3878 22.376V31H77.2238V22.376C77.2238 20.9947 76.8784 19.94 76.1878 19.212C75.4971 18.4653 74.5544 18.092 73.3598 18.092C72.1651 18.092 71.2131 18.4653 70.5038 19.212C69.8131 19.94 69.4678 20.9947 69.4678 22.376V31H66.2758V15.572H69.4678V17.336C69.9904 16.7013 70.6531 16.2067 71.4558 15.852C72.2584 15.4973 73.1171 15.32 74.0318 15.32C75.2638 15.32 76.3651 15.5813 77.3358 16.104C78.3064 16.6267 79.0531 17.3827 79.5758 18.372C80.0424 17.4387 80.7704 16.7013 81.7598 16.16C82.7491 15.6 83.8131 15.32 84.9518 15.32ZM94.3055 23.216C94.3055 21.6667 94.6229 20.2947 95.2575 19.1C95.9109 17.9053 96.7882 16.9813 97.8895 16.328C99.0095 15.656 100.242 15.32 101.586 15.32C102.799 15.32 103.854 15.5627 104.75 16.048C105.664 16.5147 106.392 17.1027 106.934 17.812V15.572H110.154V31H106.934V28.704C106.392 29.432 105.655 30.0387 104.722 30.524C103.788 31.0093 102.724 31.252 101.53 31.252C100.204 31.252 98.9909 30.916 97.8895 30.244C96.7882 29.5533 95.9109 28.6013 95.2575 27.388C94.6229 26.156 94.3055 24.7653 94.3055 23.216ZM106.934 23.272C106.934 22.208 106.71 21.284 106.262 20.5C105.832 19.716 105.263 19.1187 104.554 18.708C103.844 18.2973 103.079 18.092 102.258 18.092C101.436 18.092 100.671 18.2973 99.9615 18.708C99.2522 19.1 98.6735 19.688 98.2255 20.472C97.7962 21.2373 97.5815 22.152 97.5815 23.216C97.5815 24.28 97.7962 25.2133 98.2255 26.016C98.6735 26.8187 99.2522 27.4347 99.9615 27.864C100.69 28.2747 101.455 28.48 102.258 28.48C103.079 28.48 103.844 28.2747 104.554 27.864C105.263 27.4533 105.832 26.856 106.262 26.072C106.71 25.2693 106.934 24.336 106.934 23.272ZM117.538 17.812C118.005 17.028 118.621 16.4213 119.386 15.992C120.17 15.544 121.094 15.32 122.158 15.32V18.624H121.346C120.095 18.624 119.143 18.9413 118.49 19.576C117.855 20.2107 117.538 21.312 117.538 22.88V31H114.346V15.572H117.538V17.812ZM138.98 15.572L129.516 38.252H126.212L129.348 30.748L123.272 15.572H126.828L131.168 27.332L135.676 15.572H138.98Z" fill="#171717"/>
<defs>
<filter id="filter0_d_36_32" x="0.499512" y="24.5002" width="143" height="27.0002" filterUnits="userSpaceOnUse" color-interpolation-filters="sRGB">
<feFlood flood-opacity="0" result="BackgroundImageFix"/>
<feColorMatrix in="SourceAlpha" type="matrix" values="0 0 0 0 0 0 0 0 0 0 0 0 0 0 0 0 0 0 127 0" result="hardAlpha"/>
<feOffset/>
<feGaussianBlur stdDeviation="2"/>
<feComposite in2="hardAlpha" operator="out"/>
<feColorMatrix type="matrix" values="0 0 0 0 1 0 0 0 0 0.891833 0 0 0 0 0.508333 0 0 0 0.6 0"/>
<feBlend mode="normal" in2="BackgroundImageFix" result="effect1_dropShadow_36_32"/>
<feBlend mode="normal" in="SourceGraphic" in2="effect1_dropShadow_36_32" result="shape"/>
</filter>
</defs>
</svg>
